<svg xmlns="http://www.w3.org/2000/svg" width="274" height="124" viewBox="0 0 274 124" fill="none"><g clip-path="url(#clip0_50_653)"><path fill-rule="evenodd" clip-rule="evenodd" d="M137.343 1.46045C132.536 1.5893 129.103 4.08047 125.884 6.44278C125.712 6.57164 125.54 6.70049 125.369 6.82934C123.566 8.11788 121.849 9.36346 120.004 10.4372C118.158 11.511 116.227 12.37 114.038 13.0143C113.78 13.1002 113.609 13.272 113.609 13.4438C113.437 18.4262 113.652 23.5803 114.467 28.6915C115.283 33.8027 116.699 38.828 119.017 43.4667C120.862 47.1175 123.18 50.4677 126.184 53.4314C128.931 56.1802 132.021 58.5855 135.584 60.1317C137.258 60.9478 137.515 60.9478 139.06 60.1747C142.623 58.5855 145.756 56.2232 148.545 53.4314C151.507 50.4677 153.868 47.1175 155.713 43.4667C158.031 38.828 159.49 33.8027 160.263 28.6915C161.078 23.6232 161.25 18.4262 161.121 13.4438C161.121 13.2291 160.949 13.0573 160.692 13.0143C158.503 12.37 156.529 11.4681 154.726 10.4372C152.88 9.36346 151.121 8.11788 149.361 6.82934C149.189 6.70049 149.018 6.57164 148.846 6.44278C145.584 4.12342 142.108 1.63225 137.343 1.46045Z" fill="white"></path><path fill-rule="evenodd" clip-rule="evenodd" d="M122.965 55.4927C123.094 55.5356 123.223 55.6215 123.437 55.7504C123.824 55.9651 124.21 56.2228 124.596 56.4376C125.798 57.1248 125.497 56.953 124.253 56.953H1.37343H0.214599C0.0858396 56.953 0 56.8671 0 56.7383V55.5786C0 55.5356 0 55.4927 0.0429198 55.4927H122.965Z" fill="#A3A372"></path><path fill-rule="evenodd" clip-rule="evenodd" d="M137.043 62.9664C127.515 58.8431 120.69 52.4434 116.398 43.8961C112.149 35.3918 110.433 24.7828 111.076 12.1552C111.076 11.9404 111.291 11.7686 111.548 11.7257C116.441 10.9096 119.961 8.37548 123.394 5.88431C127.429 2.96363 131.334 0.128853 137.343 0C143.309 0.128853 147.258 2.96363 151.292 5.88431C154.726 8.37548 158.245 10.9096 163.138 11.7257C163.396 11.7686 163.61 11.9404 163.61 12.1552C164.254 24.7828 162.537 35.3918 158.288 43.8961C156.056 48.363 153.138 52.2286 149.532 55.4929H274.043C274.043 55.5359 274.086 55.5358 274.086 55.5788V56.7385C274.086 56.8673 274 56.9532 273.871 56.9532H272.712H147.816C144.854 59.3156 141.464 61.3343 137.644 63.0093C137.558 63.0523 137.472 63.0523 137.343 63.0523C137.214 63.0094 137.129 63.0094 137.043 62.9664ZM137.343 2.74887C132.751 2.87773 129.446 5.28299 126.356 7.51645C126.184 7.64531 126.012 7.77416 125.841 7.90301C124.124 9.1486 122.45 10.3083 120.69 11.3391C118.931 12.3699 117.085 13.229 114.982 13.8303C114.725 13.9162 114.596 14.088 114.596 14.2598C114.424 19.0274 114.639 23.9667 115.411 28.8202C116.184 33.7167 117.557 38.5272 119.789 42.9512C121.549 46.4732 123.781 49.6515 126.656 52.4863C129.317 55.1063 132.279 57.4257 135.669 58.886C137.3 59.6592 137.515 59.6592 138.974 58.929C142.408 57.4257 145.412 55.1493 148.073 52.4863C150.906 49.6515 153.181 46.4302 154.94 42.9512C157.172 38.4842 158.546 33.7167 159.318 28.8202C160.091 23.9667 160.262 18.9844 160.134 14.2598C160.134 14.088 159.962 13.9162 159.747 13.8303C157.644 13.229 155.756 12.3699 154.039 11.3391C152.279 10.3083 150.605 9.1486 148.889 7.90301C148.717 7.77416 148.545 7.64531 148.374 7.51645C145.198 5.24004 141.893 2.87773 137.343 2.74887Z" fill="#184E4E"></path><path fill-rule="evenodd" clip-rule="evenodd" d="M43.0486 70.0965L43.0056 69.7099H41.4605H37.5548H35.5376C34.8938 69.7099 34.2071 69.7099 33.5633 69.6669C32.8766 69.6669 32.1899 69.624 31.4602 69.5381C31.3744 69.5381 31.2885 69.581 31.2456 69.6669C31.2027 69.7528 31.2456 69.8387 31.3315 69.8817C31.6748 70.1394 32.0182 70.2683 32.2757 70.3971C32.5332 70.483 32.8337 70.5689 33.0912 70.6548C33.3487 70.7407 33.6062 70.8696 33.8637 70.9984C34.1212 71.1273 34.3358 71.2561 34.5504 71.4709C34.765 71.6427 34.8938 71.9004 35.0226 72.2011C35.1513 72.5017 35.1942 72.8883 35.1942 73.3607V103.512C35.1942 105.359 35.0655 106.949 34.808 108.366C34.5504 109.783 34.1642 111.072 33.6062 112.274C33.0483 113.477 32.4045 114.637 31.5461 115.754C30.7306 116.87 29.7434 118.03 28.5417 119.276C28.4558 119.361 28.4558 119.49 28.5417 119.576C28.6275 119.662 28.6704 119.705 28.7992 119.619C30.2585 118.889 31.6319 118.03 32.9195 116.956C34.25 115.882 35.3659 114.68 36.3531 113.348C37.3402 112.017 38.1128 110.556 38.7137 109.01C39.3145 107.421 39.615 105.746 39.615 103.985V73.2748C39.615 72.1152 39.9154 71.342 40.5592 70.9555C41.3318 70.6119 42.1043 70.3112 43.0486 70.0965ZM72.2769 103.298V102.911C71.5044 102.825 70.7748 102.653 70.1739 102.31C69.573 101.966 69.058 101.408 68.6717 100.635C66.7832 96.9839 65.1523 93.2042 63.693 89.3815C62.2337 85.5589 60.8174 81.7362 59.4869 77.9136C59.3152 77.4411 59.1435 76.9686 58.9718 76.4962C58.8001 76.0237 58.6285 75.5513 58.4568 75.0788C58.4139 74.9929 58.3709 74.907 58.2422 74.907C58.1134 74.907 58.0705 74.9499 58.0276 75.0788C57.3838 76.7968 56.8258 78.4719 56.2679 80.147C55.7099 81.8221 55.1519 83.4972 54.5511 85.2153C53.6927 87.7064 52.8343 90.2405 51.933 92.6888C51.0316 95.1799 50.1303 97.6281 49.1861 100.119V100.076C48.4565 101.794 47.2118 102.782 45.4092 103.04C45.3233 103.083 45.2804 103.169 45.2804 103.298C45.2804 103.427 45.3662 103.47 45.4521 103.47C46.0959 103.384 46.7826 103.341 47.4264 103.298C48.0702 103.255 48.7569 103.212 49.4007 103.212C50.0445 103.212 50.7312 103.255 51.375 103.298C52.0188 103.341 52.6626 103.427 53.3064 103.47V103.083C52.9201 102.997 52.4909 102.911 52.0617 102.739C51.6325 102.568 51.4179 102.267 51.4179 101.751C51.4179 101.365 51.5467 100.764 51.7613 99.9475C51.9759 99.1314 52.2334 98.2295 52.5338 97.2845C52.8343 96.3396 53.1347 95.4376 53.4352 94.5786C53.7356 93.7196 53.9931 93.0753 54.1648 92.6029H61.8045C62.3625 94.235 62.9634 95.8242 63.5642 97.3704C64.1651 98.9167 64.766 100.506 65.3239 102.095L63.3925 103.083C63.3067 103.169 63.2638 103.255 63.3067 103.341C63.3496 103.427 63.3926 103.512 63.5213 103.512C64.2939 103.427 65.0235 103.384 65.7961 103.298C66.5686 103.212 67.2983 103.212 68.0708 103.212C68.3713 103.212 68.6717 103.212 68.9292 103.255C69.1867 103.255 69.4872 103.298 69.7447 103.341C70.2168 103.384 70.646 103.427 71.0323 103.427C71.3756 103.384 71.8048 103.384 72.2769 103.298ZM61.0749 90.9278H54.7228C55.3665 89.0809 55.9245 87.3199 56.4395 85.6018C56.9546 83.8838 57.4696 82.1228 58.0276 80.3188L61.0749 90.9278ZM91.4192 98.2295L91.0329 98.1436C90.4749 99.3462 89.6595 100.291 88.6294 101.021C87.5993 101.751 86.4405 102.095 85.1958 102.095C83.9082 102.095 82.8352 101.709 81.9768 100.935C81.1184 100.162 80.6892 99.0885 80.6892 97.6711V78.7296C80.6892 77.9995 80.9467 77.3982 81.5047 76.9257C82.0627 76.4532 82.7065 76.1096 83.3932 75.9808C83.479 75.9378 83.5219 75.8519 83.5219 75.766C83.5219 75.6372 83.4361 75.5942 83.3503 75.5942C81.5905 75.6801 79.8308 75.766 78.157 75.766C77.5132 75.766 76.9123 75.766 76.3543 75.766C75.7534 75.766 75.1526 75.766 74.5517 75.7231V76.1096C75.3243 76.1526 76.011 76.4103 76.526 76.8827C77.041 77.3552 77.2986 77.9995 77.2986 78.8155V99.5609C77.2986 99.8616 77.2556 100.205 77.1698 100.635C77.084 101.021 76.9123 101.408 76.7406 101.794C76.526 102.138 76.3114 102.439 76.011 102.696C75.7105 102.954 75.3672 103.083 75.0238 103.083C74.938 103.083 74.8951 103.169 74.8951 103.298C74.8951 103.427 74.938 103.512 75.0238 103.512C75.1955 103.512 75.3672 103.512 75.5389 103.47C75.7105 103.47 75.8822 103.427 76.0539 103.427C77.1269 103.384 78.1999 103.341 79.3158 103.341C80.3888 103.298 81.4618 103.298 82.5777 103.298C83.9082 103.298 85.2387 103.341 86.5263 103.384C87.8139 103.427 89.1444 103.512 90.432 103.684C90.432 103.684 90.4749 103.641 90.5608 103.598C90.6466 103.555 90.6895 103.47 90.6895 103.384C90.6895 103.298 90.6895 103.212 90.6466 103.169C90.99 102.482 91.1617 101.794 91.2475 101.107C91.3333 100.42 91.4192 99.6898 91.4621 98.9596C91.4621 98.8737 91.4621 98.7449 91.505 98.659C91.4192 98.4442 91.4192 98.3154 91.4192 98.2295ZM109.617 98.5731L109.231 98.4872C108.973 99.6469 108.415 100.549 107.643 101.15C106.827 101.794 105.883 102.095 104.724 102.095C103.866 102.095 103.008 101.88 102.106 101.494C101.205 101.107 100.518 100.549 100.003 99.7757V89.2956H101.462C101.72 89.2956 102.106 89.2956 102.578 89.2956C103.05 89.2956 103.565 89.3386 104.081 89.3815C104.596 89.4245 105.068 89.5104 105.497 89.5963C105.926 89.6822 106.227 89.811 106.398 89.9828C106.57 90.1546 106.656 90.3265 106.742 90.5412C106.827 90.756 106.87 90.9278 106.956 91.1425C107.042 91.3573 107.085 91.5291 107.128 91.7009C107.171 91.8727 107.299 92.0445 107.428 92.2163C107.514 92.3022 107.557 92.3022 107.643 92.2593C107.729 92.2163 107.772 92.1733 107.772 92.0445C107.857 91.6579 107.9 91.2284 107.9 90.756C107.943 90.3265 107.986 89.8969 108.029 89.4674C108.115 89.0809 108.158 88.6084 108.201 88.1359C108.244 87.6635 108.287 87.234 108.33 86.8045C108.33 86.5897 108.244 86.5467 108.072 86.5897C107.729 86.6756 107.342 86.8474 106.999 87.0622C106.742 87.1481 106.484 87.2769 106.227 87.3628C105.969 87.4487 105.754 87.5346 105.583 87.5346H99.8744V77.0975H103.78C104.81 77.0975 105.711 77.2693 106.441 77.6559C107.171 78.0424 107.557 78.8155 107.643 80.0182C107.643 80.1041 107.686 80.19 107.815 80.19C107.943 80.19 107.986 80.147 108.029 80.0611C108.201 79.288 108.33 78.5149 108.501 77.7418C108.63 76.9686 108.759 76.1526 108.888 75.2506C108.888 75.0358 108.802 74.9929 108.63 75.0358C108.501 75.1217 108.372 75.1647 108.201 75.2076C108.072 75.2506 107.9 75.3365 107.772 75.3794H93.7368C93.651 75.3794 93.5652 75.4224 93.5652 75.5083C93.5652 75.5942 93.5652 75.6801 93.651 75.7231C93.9085 75.8949 94.166 76.0237 94.4236 76.1096C94.6811 76.1955 94.8957 76.2814 95.0674 76.3244C95.4107 76.4532 95.7541 76.625 96.0545 76.8398C96.3549 77.0545 96.5266 77.4841 96.5266 78.1713V99.3462C96.5266 99.7757 96.4837 100.205 96.4408 100.635C96.3979 101.064 96.2691 101.451 96.1404 101.794C95.9687 102.138 95.7541 102.396 95.4107 102.653C95.1103 102.868 94.6811 102.997 94.209 102.997V103.384C95.1103 103.341 95.9687 103.341 96.87 103.298C97.7713 103.298 98.6726 103.255 99.531 103.255C100.175 103.255 100.819 103.255 101.462 103.298C102.106 103.298 102.707 103.341 103.394 103.341C104.166 103.341 104.896 103.341 105.669 103.384C106.441 103.384 107.214 103.427 107.943 103.427C108.115 103.427 108.33 103.384 108.587 103.255L108.63 103.212C108.759 103.212 108.845 103.169 108.845 103.04C108.93 102.267 109.059 101.494 109.145 100.764C109.317 100.119 109.445 99.3462 109.617 98.5731ZM125.841 96.0819C125.841 95.1799 125.669 94.3209 125.369 93.5478C125.025 92.7747 124.596 92.0445 124.081 91.3143C123.566 90.6271 122.965 89.9399 122.279 89.3386C121.592 88.6943 120.905 88.093 120.218 87.5346C119.575 86.9763 118.974 86.4608 118.416 85.9454C117.815 85.43 117.3 84.8716 116.871 84.3562C116.441 83.7979 116.055 83.2395 115.798 82.6811C115.54 82.1228 115.368 81.4785 115.368 80.7913C115.368 79.5028 115.798 78.429 116.613 77.6129C117.429 76.7968 118.502 76.3673 119.746 76.3673C120.948 76.3673 121.935 76.7968 122.665 77.6559C123.394 78.5149 123.909 79.5028 124.167 80.7054C124.21 80.7913 124.253 80.8772 124.382 80.8772C124.467 80.8772 124.553 80.8342 124.596 80.7054C124.854 78.9444 125.068 77.2263 125.197 75.5512C125.197 75.4653 125.154 75.4224 125.068 75.3365C123.995 74.9929 122.794 74.8211 121.463 74.8211C120.562 74.8211 119.532 74.9499 118.459 75.2076C117.386 75.4654 116.356 75.8519 115.454 76.3673C114.553 76.8827 113.78 77.57 113.137 78.386C112.493 79.2021 112.192 80.19 112.192 81.3497C112.192 82.1228 112.364 82.8959 112.664 83.6261C113.008 84.3562 113.437 85.1294 113.952 85.8595C114.467 86.5897 115.068 87.3199 115.755 88.0071C116.441 88.6943 117.128 89.3815 117.815 90.0687C118.459 90.713 119.102 91.3573 119.746 92.0015C120.39 92.6458 120.948 93.2901 121.42 93.9343C121.892 94.5786 122.321 95.2229 122.622 95.8242C122.922 96.4685 123.051 97.0698 123.051 97.714C123.051 98.4013 122.879 99.0026 122.579 99.5609C122.236 100.119 121.849 100.592 121.334 100.978C120.819 101.365 120.261 101.666 119.617 101.88C118.974 102.095 118.373 102.181 117.815 102.181C117.171 102.181 116.57 102.095 115.969 101.88C115.368 101.709 114.81 101.408 114.381 101.021C113.909 100.635 113.566 100.162 113.265 99.6039C112.965 99.0455 112.836 98.4442 112.836 97.714V97.0698C112.836 96.9839 112.75 96.898 112.622 96.898C112.493 96.898 112.407 96.9409 112.407 97.0698L112.149 98.2724C112.064 98.659 112.021 99.0455 111.935 99.4321C111.849 99.8187 111.806 100.248 111.806 100.635C111.806 101.279 111.935 101.794 112.235 102.224C112.493 102.653 112.879 102.997 113.308 103.255C113.737 103.512 114.253 103.727 114.768 103.856C115.326 103.985 115.841 104.028 116.313 104.028C117.343 104.028 118.416 103.813 119.532 103.427C120.648 103.04 121.678 102.482 122.622 101.794C123.566 101.107 124.339 100.248 124.94 99.2603C125.54 98.3583 125.841 97.2845 125.841 96.0819Z" fill="#A3A372"></path><path fill-rule="evenodd" clip-rule="evenodd" d="M147.258 97.2415L147.215 97.0697C146.185 96.9409 145.284 96.5973 144.425 96.0389C143.567 95.4805 142.794 94.8363 142.065 94.1061C142.279 93.8054 142.451 93.4618 142.665 93.0753C142.837 92.6887 143.009 92.2592 143.181 91.8297C143.352 91.4002 143.481 90.9706 143.567 90.4982C143.696 90.0687 143.781 89.6821 143.867 89.2956C143.867 89.2526 143.867 89.2097 143.824 89.2097C143.481 89.0378 143.181 88.909 142.794 88.8231C142.451 88.7372 142.108 88.6942 141.721 88.6942C141.335 88.6942 140.992 88.7372 140.691 88.866C140.648 88.866 140.605 88.909 140.605 88.9519C140.605 88.9949 140.648 88.9949 140.691 89.0378C141.163 89.1238 141.55 89.2526 141.85 89.5103C142.15 89.768 142.322 90.1546 142.322 90.627C142.322 91.0995 142.236 91.6149 142.022 92.1733C141.807 92.6887 141.592 93.2041 141.335 93.6336C141.206 93.5048 141.077 93.3759 140.906 93.2471C140.734 93.0753 140.562 92.9464 140.391 92.7746C139.833 92.2162 139.189 91.6149 138.502 90.9277C137.816 90.2405 137.172 89.5533 136.571 88.8231C135.97 88.0929 135.498 87.3628 135.069 86.6755C134.682 85.9454 134.468 85.3011 134.468 84.6998C134.468 84.0126 134.682 83.4112 135.155 82.9388C135.584 82.4663 136.185 82.2516 136.871 82.2516C137.215 82.2516 137.558 82.2945 137.901 82.4234C138.245 82.5522 138.545 82.724 138.803 82.9388C139.06 83.1535 139.275 83.4542 139.404 83.7549C139.532 84.0555 139.618 84.3991 139.618 84.7857L139.575 85.1722C139.575 85.2152 139.618 85.2581 139.661 85.2581C139.704 85.2581 139.747 85.2581 139.79 85.2152C140.004 84.6139 140.09 84.0126 140.09 83.3253C140.09 82.767 140.047 82.2945 139.919 81.8221C139.919 81.7791 139.876 81.7362 139.833 81.7362C139.447 81.5643 139.017 81.4355 138.588 81.3925C138.159 81.3066 137.73 81.3066 137.301 81.3066C136.743 81.3066 136.185 81.3925 135.67 81.6073C135.112 81.8221 134.639 82.1227 134.21 82.5093C133.781 82.8958 133.438 83.3253 133.18 83.8408C132.923 84.3562 132.794 84.9145 132.794 85.5159C132.794 86.0313 132.923 86.5037 133.137 86.9332C133.352 87.3628 133.609 87.7493 133.953 88.0929C133.567 88.3936 133.223 88.7372 132.88 89.0808C132.536 89.4244 132.236 89.811 131.978 90.1975C131.721 90.5841 131.506 91.0136 131.335 91.4861C131.163 91.9585 131.077 92.431 131.077 92.9894C131.077 93.6766 131.249 94.3208 131.549 94.8792C131.85 95.4376 132.236 95.91 132.708 96.3395C133.18 96.7261 133.738 97.0268 134.339 97.2415C134.94 97.4563 135.584 97.5851 136.228 97.5851C137.086 97.5851 137.944 97.3704 138.717 96.9409C139.489 96.5113 140.219 96.0389 140.906 95.4805C141.249 95.7812 141.593 96.0389 141.893 96.2966C142.193 96.5543 142.537 96.7261 142.837 96.8979C143.138 97.0697 143.481 97.1986 143.867 97.2845C144.254 97.3704 144.64 97.4133 145.112 97.4133H145.241C145.369 97.4133 145.584 97.4133 145.799 97.4133C146.013 97.4133 146.228 97.4133 146.442 97.4133C146.657 97.4133 146.829 97.3704 147.043 97.3704C147.086 97.3274 147.215 97.2845 147.258 97.2415ZM140.133 94.9222C139.704 95.4376 139.189 95.8241 138.588 96.1677C138.03 96.5113 137.386 96.6402 136.743 96.6402C136.185 96.6402 135.67 96.5113 135.197 96.2966C134.725 96.0818 134.296 95.7812 133.91 95.3946C133.524 95.0081 133.223 94.5785 133.009 94.0631C132.794 93.5477 132.665 93.0323 132.665 92.431C132.665 91.7438 132.794 91.0995 133.094 90.4982C133.395 89.8539 133.738 89.3385 134.21 88.8231C135.069 89.9398 136.013 91.0136 137 92.0015C137.944 93.0753 138.974 94.0202 140.133 94.9222Z" fill="#184E4E"></path><path fill-rule="evenodd" clip-rule="evenodd" d="M186.401 103.298V102.911C185.628 102.825 184.899 102.654 184.298 102.31C183.697 101.966 183.182 101.408 182.795 100.635C180.907 96.9841 179.276 93.2044 177.817 89.3817C176.357 85.5591 174.941 81.7364 173.611 77.9138C173.439 77.4413 173.267 76.9689 173.096 76.4964C172.924 76.0239 172.752 75.5515 172.581 75.079C172.538 74.9931 172.495 74.9072 172.366 74.9072C172.237 74.9072 172.194 74.9501 172.151 75.079C171.508 76.797 170.95 78.4721 170.392 80.1472C169.834 81.8223 169.276 83.4974 168.675 85.2155C167.816 87.7066 166.958 90.2408 166.057 92.689C165.155 95.1801 164.254 97.6284 163.31 100.12V100.077C162.58 101.795 161.336 102.782 159.533 103.04C159.447 103.083 159.404 103.169 159.404 103.298C159.404 103.427 159.49 103.47 159.576 103.47C160.22 103.384 160.906 103.341 161.55 103.298C162.194 103.255 162.881 103.212 163.524 103.212C164.168 103.212 164.855 103.255 165.499 103.298C166.143 103.341 166.786 103.427 167.43 103.47V103.083C167.044 102.997 166.615 102.911 166.186 102.74C165.756 102.568 165.542 102.267 165.542 101.752C165.542 101.365 165.67 100.764 165.885 99.9477C166.1 99.1316 166.357 98.2297 166.658 97.2847C166.958 96.3398 167.259 95.4378 167.559 94.5788C167.859 93.7198 168.117 93.0755 168.289 92.6031H175.928C176.486 94.2352 177.087 95.8244 177.688 97.3706C178.289 98.9169 178.89 100.506 179.448 102.095L177.516 103.083C177.431 103.169 177.388 103.255 177.43 103.341C177.473 103.427 177.516 103.513 177.645 103.513C178.418 103.427 179.147 103.384 179.92 103.298C180.692 103.212 181.422 103.212 182.195 103.212C182.495 103.212 182.795 103.212 183.053 103.255C183.311 103.255 183.611 103.298 183.868 103.341C184.341 103.384 184.77 103.427 185.156 103.427C185.542 103.384 185.972 103.384 186.401 103.298ZM175.199 90.928H168.847C169.49 89.0811 170.048 87.3201 170.563 85.602C171.078 83.884 171.593 82.123 172.151 80.319L175.199 90.928ZM205.543 98.2297L205.157 98.1438C204.599 99.3464 203.783 100.291 202.753 101.021C201.723 101.752 200.564 102.095 199.32 102.095C198.032 102.095 196.959 101.709 196.101 100.936C195.242 100.162 194.813 99.0887 194.813 97.6713V78.7298C194.813 77.9997 195.071 77.3984 195.628 76.9259C196.186 76.4534 196.83 76.1098 197.517 75.981C197.603 75.938 197.646 75.8521 197.646 75.7662C197.646 75.6374 197.56 75.5944 197.474 75.5944C195.714 75.6803 193.955 75.7662 192.281 75.7662C191.637 75.7662 191.036 75.7662 190.478 75.7662C189.877 75.7662 189.276 75.7662 188.675 75.7233V76.1098C189.448 76.1528 190.135 76.4105 190.65 76.8829C191.165 77.3554 191.422 77.9997 191.422 78.8157V99.5612C191.422 99.8618 191.379 100.205 191.294 100.635C191.208 101.021 191.036 101.408 190.864 101.795C190.65 102.138 190.435 102.439 190.135 102.697C189.834 102.954 189.491 103.083 189.148 103.083C189.062 103.083 189.019 103.169 189.019 103.298C189.019 103.427 189.062 103.513 189.148 103.513C189.319 103.513 189.491 103.513 189.663 103.47C189.834 103.47 190.006 103.427 190.178 103.427C191.251 103.384 192.324 103.341 193.44 103.341C194.513 103.298 195.586 103.298 196.701 103.298C198.032 103.298 199.363 103.341 200.65 103.384C201.938 103.427 203.268 103.513 204.556 103.684C204.556 103.684 204.599 103.642 204.685 103.599C204.77 103.556 204.813 103.47 204.813 103.384C204.813 103.298 204.813 103.212 204.77 103.169C205.114 102.482 205.285 101.795 205.371 101.107C205.457 100.42 205.543 99.69 205.586 98.9598C205.586 98.8739 205.586 98.7451 205.629 98.6592C205.543 98.4444 205.543 98.3156 205.543 98.2297ZM223.741 98.5733L223.355 98.4874C223.097 99.6471 222.539 100.549 221.767 101.15C220.994 101.752 220.007 102.095 218.848 102.095C217.99 102.095 217.131 101.881 216.23 101.494C215.329 101.107 214.642 100.549 214.127 99.7759V89.2958H215.586C215.844 89.2958 216.23 89.2958 216.702 89.2958C217.174 89.2958 217.689 89.3388 218.204 89.3817C218.719 89.4247 219.191 89.5106 219.621 89.5965C220.05 89.6824 220.35 89.8112 220.522 89.9831C220.694 90.1549 220.779 90.3267 220.865 90.5414C220.951 90.7562 220.994 90.928 221.08 91.1427C221.166 91.3575 221.209 91.5293 221.252 91.7011C221.295 91.8729 221.423 92.0447 221.552 92.2165C221.638 92.3024 221.681 92.3024 221.767 92.2595C221.852 92.2165 221.895 92.1736 221.895 92.0447C221.981 91.6581 222.024 91.2286 222.024 90.7562C222.067 90.3267 222.11 89.8971 222.153 89.4676C222.239 89.0811 222.282 88.6086 222.325 88.1361C222.368 87.6637 222.41 87.2342 222.453 86.8047C222.453 86.5899 222.368 86.547 222.196 86.5899C221.852 86.6758 221.466 86.8476 221.123 87.0624C220.865 87.1483 220.608 87.2771 220.35 87.363C220.093 87.4489 219.878 87.5348 219.706 87.5348H213.998V77.0977H217.904C218.934 77.0977 219.835 77.2695 220.565 77.6561C221.295 78.0426 221.681 78.8157 221.767 80.0184C221.767 80.1043 221.81 80.1902 221.938 80.1902C222.067 80.1902 222.11 80.1472 222.153 80.0613C222.325 79.2882 222.453 78.5151 222.625 77.742C222.754 76.9688 222.883 76.1528 223.011 75.2508C223.011 75.036 222.925 74.9931 222.754 75.036C222.625 75.1219 222.496 75.1649 222.325 75.2079C222.196 75.2508 222.024 75.3367 221.895 75.3797H207.861C207.775 75.3797 207.689 75.4226 207.689 75.5085C207.689 75.5944 207.689 75.6803 207.775 75.7233C208.032 75.8951 208.29 76.0239 208.547 76.1098C208.805 76.1957 209.019 76.2816 209.191 76.3246C209.535 76.4534 209.878 76.6252 210.178 76.84C210.479 77.0547 210.65 77.4843 210.65 78.1715V99.3464C210.65 99.7759 210.608 100.205 210.565 100.635C210.522 101.064 210.393 101.451 210.264 101.795C210.092 102.138 209.878 102.396 209.535 102.654C209.234 102.868 208.805 102.997 208.333 102.997V103.384C209.234 103.341 210.092 103.341 210.994 103.298C211.895 103.298 212.796 103.255 213.655 103.255C214.299 103.255 214.942 103.255 215.586 103.298C216.23 103.298 216.831 103.341 217.518 103.341C218.29 103.341 219.02 103.341 219.792 103.384C220.565 103.384 221.337 103.427 222.067 103.427C222.239 103.427 222.453 103.384 222.711 103.255L222.754 103.212C222.883 103.212 222.968 103.169 222.968 103.04C223.054 102.267 223.183 101.494 223.269 100.764C223.441 100.12 223.569 99.3464 223.741 98.5733ZM158.589 75.2079L158.546 74.9072H157.43H154.511H153.009C152.537 74.9072 152.022 74.9072 151.507 74.9072C150.992 74.9072 150.477 74.8642 149.962 74.8213C149.876 74.8213 149.833 74.8642 149.833 74.9072C149.79 74.9501 149.833 75.036 149.919 75.079C150.176 75.2508 150.434 75.3797 150.649 75.4656C150.863 75.5515 151.078 75.5944 151.249 75.6374C151.464 75.7233 151.636 75.8092 151.85 75.8951C152.065 75.981 152.237 76.1098 152.365 76.2387C152.494 76.3675 152.623 76.5393 152.709 76.797C152.795 77.0118 152.752 77.3125 152.752 77.6561V100.077C152.752 101.451 152.752 102.654 152.58 103.684C152.408 104.715 152.108 105.703 151.722 106.605C151.335 107.507 150.82 108.366 150.219 109.182C149.618 109.998 148.846 110.9 147.988 111.802C147.945 111.888 147.945 111.974 147.988 112.017C148.03 112.103 148.116 112.103 148.159 112.06C149.232 111.545 150.262 110.857 151.249 110.084C152.237 109.268 153.095 108.409 153.825 107.421C154.554 106.433 155.155 105.36 155.584 104.2C156.014 103.04 156.228 101.795 156.228 100.463V77.6131C156.228 76.7541 156.443 76.1957 156.915 75.8951C157.301 75.5944 157.859 75.3797 158.589 75.2079Z" fill="#184E4E"></path><path fill-rule="evenodd" clip-rule="evenodd" d="M246.059 98.3153C246.059 97.0698 245.845 95.9101 245.415 94.8363C244.986 93.7625 244.385 92.8176 243.656 91.8727C242.926 90.9707 242.111 90.0687 241.209 89.2526C240.308 88.4366 239.364 87.5776 238.462 86.7615C237.604 86.0313 236.789 85.3441 235.973 84.6139C235.158 83.8838 234.471 83.1536 233.87 82.3805C233.269 81.6073 232.754 80.8342 232.411 80.0182C232.025 79.2021 231.853 78.3431 231.853 77.4411C231.853 76.5391 232.024 75.723 232.325 74.9929C232.625 74.2627 233.055 73.6184 233.613 73.103C234.17 72.5876 234.814 72.1581 235.544 71.8574C236.274 71.5568 237.089 71.385 237.947 71.385C238.763 71.385 239.493 71.5568 240.179 71.8574C240.866 72.201 241.424 72.5876 241.939 73.146C242.454 73.6614 242.883 74.3056 243.227 74.9929C243.57 75.723 243.827 76.4532 243.999 77.2693C244.042 77.3552 244.085 77.3981 244.214 77.3981C244.342 77.3981 244.385 77.3122 244.385 77.2263C244.385 77.1404 244.385 77.0975 244.428 77.0545C244.428 77.0116 244.471 76.9257 244.471 76.8827C244.643 75.8089 244.772 74.6922 244.9 73.6184C245.029 72.5446 245.115 71.4279 245.201 70.3541C245.201 70.2253 245.158 70.1394 245.072 70.1394C243.57 69.7099 241.939 69.4951 240.265 69.4951C239.02 69.4951 237.647 69.6669 236.188 69.9676C234.728 70.3112 233.355 70.8266 232.11 71.5138C230.866 72.244 229.836 73.146 228.977 74.2627C228.119 75.3794 227.69 76.7109 227.69 78.3001C227.69 79.3309 227.904 80.3188 228.376 81.3496C228.848 82.3805 229.406 83.3683 230.136 84.3562C230.866 85.3441 231.681 86.289 232.582 87.2339C233.484 88.1789 234.428 89.0808 235.329 90.0258C236.231 90.8848 237.089 91.7438 237.947 92.6028C238.806 93.5048 239.578 94.3638 240.222 95.2658C240.909 96.1678 241.424 97.0268 241.853 97.9288C242.282 98.8308 242.454 99.6898 242.454 100.549C242.454 101.451 242.239 102.31 241.81 103.083C241.381 103.856 240.823 104.5 240.093 105.016C239.407 105.531 238.634 105.961 237.776 106.218C236.917 106.519 236.102 106.648 235.286 106.648C234.299 106.648 233.398 106.519 232.582 106.218C231.767 105.918 231.037 105.531 230.436 104.973C229.793 104.414 229.321 103.77 228.977 102.954C228.634 102.138 228.462 101.193 228.462 100.162V99.6468C228.462 99.5609 228.419 99.475 228.29 99.475C228.162 99.475 228.119 99.518 228.076 99.6039C227.99 99.8616 227.947 100.162 227.904 100.463C227.861 100.764 227.818 101.021 227.733 101.322C227.604 101.837 227.475 102.353 227.346 102.911C227.217 103.469 227.175 104.028 227.175 104.629C227.175 105.488 227.346 106.175 227.733 106.734C228.119 107.292 228.591 107.765 229.192 108.108C229.793 108.452 230.436 108.71 231.166 108.881C231.896 109.053 232.582 109.096 233.269 109.096C234.643 109.096 236.102 108.838 237.604 108.323C239.149 107.808 240.523 107.077 241.767 106.132C243.012 105.188 244.085 104.071 244.9 102.739C245.673 101.408 246.059 99.9475 246.059 98.3153Z" fill="#184E4E"></path><path fill-rule="evenodd" clip-rule="evenodd" d="M56.7399 123.871C56.7828 123.828 56.7399 123.828 56.7399 123.828C56.5682 123.828 56.3965 123.785 56.2677 123.699C56.139 123.613 56.0102 123.527 55.9244 123.356C55.7098 122.969 55.5381 122.583 55.3664 122.196C55.1947 121.809 55.0231 121.38 54.8514 120.993C54.6797 120.564 54.508 120.177 54.3793 119.748C54.2076 119.318 54.0788 118.932 53.9501 118.545C53.9072 118.459 53.9072 118.373 53.8642 118.33C53.8213 118.244 53.8213 118.159 53.7784 118.116C53.7784 118.116 53.7784 118.073 53.7355 118.073C53.6926 118.073 53.6926 118.073 53.6926 118.116C53.5638 118.459 53.435 118.846 53.3063 119.232C53.1775 119.619 53.0488 119.963 52.92 120.349C52.7483 120.865 52.5766 121.337 52.405 121.852C52.2333 122.325 52.0616 122.84 51.847 123.313C51.7612 123.485 51.6753 123.613 51.5466 123.742C51.4178 123.828 51.2461 123.914 51.0315 123.957C51.0315 123.957 50.9886 123.957 51.0315 124C51.0315 124 51.0315 124.043 51.0744 124.043C51.1174 124.043 51.2032 124.043 51.2461 124.043C51.289 124.043 51.3749 124.043 51.4178 124.043C51.5036 124.043 51.5895 124.043 51.6753 124C51.7612 124 51.847 124 51.9328 124C52.0187 124 52.1045 124 52.1904 124C52.2762 124 52.362 124 52.4479 124.043C52.4908 124.043 52.5337 124.043 52.5766 124.043C52.6196 124.043 52.6625 124.043 52.7054 124.043V124C52.6625 124 52.6196 124 52.5766 124C52.5337 124 52.4908 123.957 52.4479 123.957C52.405 123.957 52.362 123.914 52.362 123.871C52.3191 123.828 52.3191 123.785 52.3191 123.742C52.3191 123.656 52.362 123.527 52.405 123.356C52.4479 123.184 52.4908 123.012 52.5766 122.797C52.6196 122.626 52.7054 122.411 52.7912 122.239C52.8771 122.067 52.92 121.938 52.9629 121.852H54.5939C54.7226 122.196 54.8514 122.497 54.9801 122.84C55.1089 123.184 55.2377 123.485 55.3664 123.828L54.9372 124V124.043C54.9372 124.043 54.9372 124.086 54.9801 124.043C55.0231 124.043 55.0231 124.043 55.066 124.043C55.1089 124.043 55.1518 124.043 55.1518 124.043C55.2806 124.043 55.4093 124.043 55.5381 124C55.6669 124 55.7956 124 55.9244 124C55.9673 124 56.0102 124 56.0961 124C56.139 124 56.2248 124 56.2677 124C56.3107 124 56.3965 124 56.4823 124C56.5682 124 56.6111 124 56.6969 124L56.7399 123.871ZM54.3793 121.337H52.9629C53.0917 121.036 53.1775 120.736 53.2634 120.435C53.3492 120.134 53.435 119.834 53.5638 119.533C53.5638 119.447 53.6067 119.404 53.6496 119.318C53.6926 119.232 53.6926 119.189 53.7355 119.104L54.3793 121.337ZM66.6114 120.95C66.6114 120.907 66.6114 120.907 66.6114 120.865C66.6114 120.822 66.6114 120.822 66.6114 120.779C66.6114 120.736 66.6114 120.736 66.6114 120.693C66.6114 120.65 66.6114 120.65 66.6114 120.607C66.6114 120.263 66.5256 119.963 66.3539 119.662C66.1822 119.361 65.9676 119.104 65.7101 118.889C65.4526 118.674 65.1521 118.502 64.8088 118.373C64.4654 118.244 64.165 118.202 63.8216 118.202C63.6929 118.202 63.5641 118.202 63.3924 118.202C63.2637 118.202 63.092 118.202 62.9632 118.202C62.8345 118.202 62.7057 118.202 62.534 118.244C62.4053 118.244 62.2336 118.244 62.1048 118.244C61.9761 118.244 61.8902 118.244 61.7615 118.244C61.6327 118.244 61.5469 118.244 61.4181 118.202C61.3323 118.202 61.2464 118.202 61.1606 118.202C61.0748 118.202 60.9889 118.202 60.8602 118.202C60.8172 118.202 60.8172 118.202 60.8172 118.244C60.8172 118.287 60.8602 118.287 60.9031 118.33C60.946 118.33 60.9889 118.33 61.0318 118.373C61.0748 118.373 61.1177 118.373 61.1606 118.416C61.2035 118.416 61.2464 118.459 61.2894 118.459C61.3323 118.502 61.3752 118.502 61.3752 118.588C61.4181 118.631 61.4181 118.717 61.4181 118.803V123.141C61.4181 123.27 61.4181 123.356 61.4181 123.442C61.4181 123.527 61.3752 123.613 61.3323 123.656C61.2894 123.699 61.2464 123.785 61.1606 123.828C61.0748 123.871 60.9889 123.914 60.9031 123.914C60.9031 123.914 60.8602 123.914 60.9031 123.957C60.9031 123.957 60.9031 124 60.946 124C61.1606 124 61.3752 124 61.5898 124C61.8044 124 62.019 124.043 62.2336 124.043C62.4053 124.043 62.577 124.086 62.7916 124.086C62.9632 124.086 63.1349 124.086 63.3495 124.086C63.8216 124.086 64.2937 124.043 64.68 123.914C65.0663 123.785 65.4097 123.613 65.7101 123.356C66.0105 123.098 66.2251 122.797 66.3968 122.411C66.5256 121.895 66.6114 121.466 66.6114 120.95ZM65.9247 121.208C65.9247 121.595 65.8818 121.981 65.753 122.282C65.6243 122.583 65.4526 122.84 65.238 123.055C65.0234 123.27 64.7229 123.399 64.4225 123.527C64.1221 123.613 63.7358 123.699 63.3495 123.699C63.1778 123.699 63.0061 123.699 62.8774 123.656C62.7486 123.656 62.6199 123.613 62.534 123.527C62.4482 123.485 62.3624 123.356 62.3194 123.27C62.2765 123.141 62.2336 122.969 62.2336 122.797V118.545C62.3624 118.502 62.4911 118.459 62.6628 118.459C62.7916 118.459 62.9632 118.416 63.092 118.416C63.5212 118.416 63.9075 118.502 64.2508 118.631C64.5942 118.76 64.8946 118.932 65.1521 119.189C65.4097 119.447 65.6243 119.705 65.753 120.091C65.8389 120.392 65.9247 120.779 65.9247 121.208ZM75.8821 118.202V118.159C75.7533 118.159 75.6246 118.202 75.4529 118.202C75.3241 118.202 75.1954 118.202 75.0237 118.202C74.852 118.202 74.7662 118.202 74.6374 118.202C74.5087 118.202 74.3799 118.159 74.2511 118.159C74.2511 118.159 74.2082 118.159 74.2082 118.202V118.244C74.2511 118.244 74.2511 118.244 74.337 118.287C74.3799 118.287 74.4228 118.33 74.4657 118.33C74.5087 118.33 74.5516 118.373 74.5945 118.416C74.6374 118.459 74.6374 118.459 74.6374 118.502C74.6374 118.674 74.5945 118.889 74.5087 119.189C74.4228 119.49 74.2941 119.791 74.1653 120.134C74.0365 120.478 73.9078 120.822 73.7361 121.165C73.5644 121.509 73.4357 121.852 73.3069 122.153C73.264 122.282 73.1781 122.411 73.1352 122.54C73.0923 122.668 73.0494 122.754 73.0065 122.883C72.9635 122.797 72.9206 122.668 72.8777 122.54C72.8348 122.411 72.7489 122.239 72.6631 122.024C72.5773 121.809 72.4914 121.595 72.4056 121.38C72.3197 121.165 72.2339 120.907 72.1481 120.693C72.0622 120.478 71.9764 120.22 71.8905 120.005C71.8047 119.791 71.7189 119.576 71.6759 119.404C71.633 119.232 71.5472 119.061 71.5043 118.889C71.4614 118.76 71.4613 118.631 71.4613 118.588C71.4613 118.545 71.4614 118.545 71.5043 118.502C71.5472 118.459 71.5901 118.459 71.633 118.459C71.6759 118.459 71.7189 118.416 71.7618 118.416C71.8047 118.416 71.8476 118.373 71.8905 118.373C71.8905 118.373 71.8905 118.373 71.8905 118.33V118.287H71.633C71.4613 118.287 71.2468 118.287 71.0751 118.287C70.9034 118.287 70.7317 118.287 70.5171 118.244C70.4313 118.244 70.3025 118.244 70.2167 118.244C70.1308 118.244 70.0021 118.244 69.9162 118.244H69.8733C69.8733 118.244 69.8733 118.244 69.8733 118.287C69.9592 118.33 70.0021 118.373 70.045 118.373C70.0879 118.373 70.1308 118.416 70.1738 118.416C70.2596 118.416 70.3025 118.459 70.3884 118.502C70.4742 118.545 70.5171 118.588 70.56 118.674C70.6459 118.803 70.7317 119.018 70.8176 119.189C70.9034 119.404 70.9892 119.576 71.0322 119.748C71.0322 119.791 71.0751 119.834 71.0751 119.877C71.0751 119.92 71.118 119.963 71.118 120.005C71.2038 120.177 71.2467 120.392 71.3326 120.564C71.4184 120.736 71.4613 120.95 71.5472 121.122C71.7189 121.638 71.9335 122.11 72.1051 122.626C72.3197 123.098 72.5343 123.613 72.8348 124.043C72.8348 124.043 72.8348 124.043 72.8777 124.043C72.8777 124.043 72.8777 124.043 72.9206 124.043C72.9635 123.957 73.0065 123.871 73.0494 123.742C73.0923 123.613 73.1781 123.485 73.2211 123.313C73.3069 123.141 73.3498 122.969 73.4357 122.754C73.5215 122.54 73.6073 122.368 73.6932 122.153C73.8219 121.895 73.9078 121.638 74.0365 121.337C74.1653 121.079 74.2511 120.779 74.3799 120.521C74.5087 120.263 74.5945 120.005 74.7233 119.748C74.8091 119.49 74.9379 119.275 74.9808 119.104C75.0666 118.932 75.1525 118.76 75.1954 118.631C75.2383 118.502 75.2812 118.459 75.3241 118.416C75.3671 118.373 75.4529 118.33 75.4958 118.287C75.5816 118.244 75.6246 118.244 75.7104 118.244C75.7533 118.244 75.7533 118.244 75.7963 118.244C75.7963 118.244 75.8392 118.244 75.8821 118.202ZM85.1957 121.208C85.1957 120.779 85.1098 120.349 84.9382 119.963C84.7665 119.576 84.5519 119.232 84.2514 118.932C83.951 118.631 83.6506 118.416 83.2643 118.244C82.878 118.073 82.4488 117.987 82.0196 117.987C82.0196 117.987 81.9767 117.987 81.9338 117.987H81.8909C81.3758 118.073 80.9895 118.202 80.6462 118.373C80.3028 118.545 80.0453 118.76 79.8307 119.018C79.6161 119.275 79.4873 119.576 79.3586 119.963C79.2727 120.349 79.2298 120.779 79.2298 121.251C79.2298 121.466 79.2727 121.681 79.3586 121.938C79.4444 122.153 79.5732 122.368 79.7019 122.583C79.8736 122.797 80.0453 122.969 80.217 123.141C80.4316 123.313 80.6462 123.485 80.8608 123.613C81.0754 123.742 81.29 123.828 81.5475 123.914C81.7621 124 82.0196 124.043 82.2342 124.043C82.6205 124.043 83.0068 123.957 83.3501 123.828C83.6935 123.699 84.0368 123.485 84.2944 123.227C84.5519 122.969 84.7665 122.668 84.9382 122.325C85.1098 121.981 85.1957 121.595 85.1957 121.208ZM84.509 121.165C84.509 121.509 84.466 121.809 84.3802 122.11C84.2944 122.411 84.1227 122.668 83.951 122.926C83.7793 123.141 83.5218 123.356 83.2643 123.485C83.0068 123.613 82.6634 123.699 82.3201 123.699C81.9338 123.699 81.5904 123.613 81.29 123.442C80.9895 123.27 80.732 123.055 80.5603 122.754C80.3457 122.497 80.217 122.153 80.0882 121.809C80.0024 121.466 79.9165 121.122 79.9165 120.779C79.9165 120.435 79.9595 120.134 80.0453 119.834C80.1311 119.533 80.3028 119.275 80.4745 119.061C80.6462 118.846 80.9037 118.674 81.1612 118.545C81.4187 118.416 81.7621 118.33 82.1055 118.33C82.4917 118.33 82.8351 118.416 83.1355 118.588C83.436 118.76 83.6935 118.975 83.8652 119.232C84.0798 119.49 84.2085 119.834 84.3373 120.134C84.466 120.478 84.509 120.822 84.509 121.165ZM95.3677 121.122V121.079C95.0672 121.079 94.7668 121.036 94.4664 121.036C94.1659 121.036 93.8655 121.036 93.565 121.036H93.5221V121.079C93.565 121.122 93.608 121.122 93.6509 121.122C93.6938 121.122 93.7367 121.165 93.7796 121.165C93.8655 121.208 93.9513 121.251 94.0372 121.294C94.123 121.337 94.1659 121.423 94.1659 121.552V123.27C94.0372 123.399 93.9084 123.485 93.7367 123.527C93.565 123.57 93.3934 123.57 93.2217 123.57C92.8354 123.57 92.4491 123.485 92.1058 123.356C91.7624 123.184 91.462 123.012 91.2045 122.754C90.9469 122.497 90.7753 122.196 90.6036 121.852C90.4748 121.509 90.389 121.122 90.389 120.736C90.389 120.392 90.4748 120.048 90.6036 119.748C90.7323 119.447 90.904 119.189 91.1615 118.975C91.3761 118.76 91.6337 118.588 91.977 118.459C92.2775 118.33 92.6208 118.287 92.9642 118.287C93.1788 118.287 93.3934 118.33 93.565 118.373C93.7796 118.416 93.9513 118.502 94.0801 118.588C94.2518 118.674 94.3805 118.846 94.4664 118.975C94.5951 119.146 94.638 119.318 94.681 119.533C94.681 119.533 94.681 119.576 94.7239 119.533C94.7239 119.533 94.7668 119.533 94.7668 119.49C94.7668 119.447 94.7668 119.447 94.7668 119.404C94.7668 119.361 94.7668 119.318 94.7668 119.318C94.8097 119.146 94.8097 118.975 94.8526 118.76C94.8956 118.588 94.8956 118.416 94.8956 118.202C94.8956 118.202 94.8956 118.159 94.8526 118.159C94.7668 118.159 94.638 118.116 94.5522 118.116C94.4664 118.116 94.3376 118.073 94.2518 118.073C94.0372 118.03 93.7796 118.03 93.565 117.987C93.3504 117.944 93.0929 117.944 92.8783 117.944C92.4491 117.944 92.0199 117.987 91.6766 118.116C91.2903 118.244 90.9469 118.416 90.6894 118.674C90.389 118.932 90.1744 119.189 90.0027 119.576C89.831 119.92 89.7452 120.349 89.7452 120.779C89.7452 121.165 89.7881 121.552 89.9169 121.895C90.0456 122.239 90.2173 122.583 90.4319 122.84C90.6465 123.141 90.9469 123.356 91.2474 123.527C91.5907 123.699 91.9341 123.785 92.3633 123.828C92.5779 123.828 92.8354 123.871 93.05 123.871C93.1788 123.871 93.3504 123.871 93.5221 123.871C93.6938 123.871 93.8226 123.828 93.9942 123.828C94.1659 123.785 94.2947 123.742 94.4664 123.699C94.5951 123.656 94.7668 123.57 94.8526 123.485C94.8526 123.485 94.8526 123.485 94.8526 123.442V121.552C94.8526 121.423 94.8956 121.294 95.0243 121.251C95.1102 121.208 95.2389 121.165 95.3677 121.122ZM104.595 123.871C104.638 123.871 104.638 123.871 104.595 123.871C104.638 123.828 104.595 123.828 104.595 123.828C104.424 123.828 104.252 123.785 104.123 123.699C103.995 123.613 103.866 123.527 103.78 123.356C103.565 122.969 103.394 122.583 103.222 122.196C103.05 121.809 102.879 121.38 102.707 120.993C102.535 120.564 102.364 120.177 102.235 119.748C102.063 119.318 101.934 118.932 101.806 118.545C101.763 118.459 101.763 118.373 101.72 118.33C101.677 118.244 101.677 118.159 101.634 118.116C101.634 118.116 101.634 118.073 101.591 118.073C101.591 118.073 101.548 118.073 101.548 118.116C101.419 118.459 101.291 118.846 101.162 119.232C101.033 119.619 100.904 119.963 100.776 120.349C100.604 120.865 100.432 121.337 100.261 121.852C100.089 122.325 99.9172 122.84 99.7026 123.313C99.6167 123.485 99.5309 123.613 99.4021 123.742C99.2734 123.828 99.1017 123.914 98.8871 123.957C98.8871 123.957 98.8442 123.957 98.8871 124C98.8871 124 98.8871 124.043 98.93 124.043C98.9729 124.043 99.0588 124.043 99.1017 124.043C99.1446 124.043 99.2305 124.043 99.2734 124.043C99.3592 124.043 99.4451 124.043 99.5309 124C99.6167 124 99.7026 124 99.7884 124C99.8743 124 99.9601 124 100.046 124C100.132 124 100.218 124 100.303 124.043C100.346 124.043 100.389 124.043 100.432 124.043C100.475 124.043 100.518 124.043 100.561 124.043V124C100.518 124 100.475 124 100.432 124C100.389 124 100.346 123.957 100.303 123.957C100.261 123.957 100.218 123.914 100.218 123.871C100.175 123.828 100.175 123.785 100.175 123.742C100.175 123.656 100.218 123.527 100.261 123.356C100.303 123.184 100.346 123.012 100.432 122.797C100.475 122.626 100.561 122.411 100.647 122.239C100.733 122.067 100.776 121.938 100.818 121.852H102.449C102.578 122.196 102.707 122.497 102.836 122.84C102.964 123.184 103.093 123.485 103.222 123.828L102.793 124V124.043C102.793 124.043 102.793 124.086 102.836 124.043C102.879 124.043 102.879 124.043 102.922 124.043C102.964 124.043 103.007 124.043 103.007 124.043C103.136 124.043 103.265 124.043 103.394 124C103.522 124 103.651 124 103.78 124C103.823 124 103.866 124 103.952 124C103.995 124 104.08 124 104.123 124C104.166 124 104.252 124 104.338 124C104.424 124 104.467 124 104.553 124L104.595 123.871ZM102.235 121.337H100.861C100.99 121.036 101.076 120.736 101.162 120.435C101.248 120.134 101.334 119.834 101.462 119.533C101.462 119.447 101.505 119.404 101.548 119.318C101.591 119.232 101.591 119.189 101.634 119.104L102.235 121.337ZM114.467 120.95C114.467 120.907 114.467 120.907 114.467 120.865C114.467 120.822 114.467 120.822 114.467 120.779C114.467 120.736 114.467 120.736 114.467 120.693C114.467 120.65 114.467 120.65 114.467 120.607C114.467 120.263 114.381 119.963 114.209 119.662C114.038 119.361 113.823 119.104 113.566 118.889C113.308 118.674 113.008 118.502 112.664 118.373C112.321 118.244 112.021 118.202 111.677 118.202C111.548 118.202 111.42 118.202 111.248 118.202C111.119 118.202 110.948 118.202 110.819 118.202C110.69 118.202 110.561 118.202 110.39 118.244C110.261 118.244 110.089 118.244 109.96 118.244C109.832 118.244 109.746 118.244 109.617 118.244C109.488 118.244 109.402 118.244 109.274 118.202C109.188 118.202 109.102 118.202 109.016 118.202C108.93 118.202 108.844 118.202 108.716 118.202C108.673 118.202 108.673 118.202 108.673 118.244C108.673 118.287 108.716 118.287 108.759 118.33C108.802 118.33 108.844 118.33 108.887 118.373C108.93 118.373 108.973 118.373 109.016 118.416C109.059 118.416 109.102 118.459 109.145 118.459C109.188 118.502 109.231 118.502 109.231 118.588C109.274 118.631 109.274 118.717 109.274 118.803V123.141C109.274 123.27 109.274 123.356 109.274 123.442C109.274 123.527 109.231 123.613 109.188 123.656C109.145 123.699 109.102 123.785 109.016 123.828C108.93 123.871 108.844 123.914 108.759 123.914C108.759 123.914 108.716 123.914 108.759 123.957C108.759 123.957 108.759 124 108.802 124C109.016 124 109.231 124 109.445 124C109.66 124 109.875 124.043 110.089 124.043C110.261 124.043 110.433 124.086 110.647 124.086C110.819 124.086 110.99 124.086 111.205 124.086C111.677 124.086 112.149 124.043 112.536 123.914C112.922 123.785 113.265 123.613 113.566 123.356C113.866 123.098 114.081 122.797 114.252 122.411C114.424 121.895 114.467 121.466 114.467 120.95ZM113.78 121.208C113.78 121.595 113.737 121.981 113.609 122.282C113.48 122.583 113.308 122.84 113.094 123.055C112.879 123.27 112.579 123.399 112.278 123.527C111.978 123.613 111.591 123.699 111.205 123.699C111.033 123.699 110.862 123.699 110.733 123.656C110.604 123.656 110.475 123.613 110.39 123.527C110.304 123.485 110.218 123.356 110.175 123.27C110.132 123.141 110.089 122.969 110.089 122.797V118.545C110.218 118.502 110.347 118.459 110.518 118.459C110.647 118.459 110.819 118.416 110.948 118.416C111.377 118.416 111.763 118.502 112.106 118.631C112.45 118.76 112.75 118.932 113.008 119.189C113.265 119.447 113.48 119.705 113.609 120.091C113.737 120.392 113.78 120.779 113.78 121.208ZM124.596 121.208C124.596 120.779 124.51 120.349 124.339 119.963C124.167 119.576 123.952 119.232 123.652 118.932C123.351 118.631 123.051 118.416 122.665 118.244C122.278 118.073 121.849 117.987 121.42 117.987C121.42 117.987 121.377 117.987 121.334 117.987H121.291C120.776 118.073 120.39 118.202 120.047 118.373C119.703 118.545 119.446 118.76 119.231 119.018C119.016 119.275 118.888 119.576 118.759 119.963C118.673 120.349 118.63 120.779 118.63 121.251C118.63 121.466 118.673 121.681 118.759 121.938C118.845 122.153 118.974 122.368 119.102 122.583C119.274 122.797 119.446 122.969 119.617 123.141C119.832 123.313 120.047 123.485 120.261 123.613C120.476 123.742 120.69 123.828 120.948 123.914C121.162 124 121.42 124.043 121.635 124.043C122.021 124.043 122.407 123.957 122.751 123.828C123.094 123.699 123.437 123.485 123.695 123.227C123.952 122.969 124.167 122.668 124.339 122.325C124.51 121.981 124.596 121.595 124.596 121.208ZM123.909 121.165C123.909 121.509 123.866 121.809 123.781 122.11C123.695 122.411 123.523 122.668 123.351 122.926C123.18 123.141 122.922 123.356 122.665 123.485C122.407 123.613 122.064 123.699 121.72 123.699C121.334 123.699 120.991 123.613 120.69 123.442C120.39 123.27 120.132 123.055 119.961 122.754C119.746 122.497 119.617 122.153 119.489 121.809C119.403 121.466 119.317 121.122 119.317 120.779C119.317 120.435 119.36 120.134 119.446 119.834C119.532 119.533 119.703 119.275 119.875 119.061C120.047 118.846 120.304 118.674 120.562 118.545C120.819 118.416 121.162 118.33 121.506 118.33C121.892 118.33 122.235 118.416 122.536 118.588C122.836 118.76 123.094 118.975 123.266 119.232C123.48 119.49 123.609 119.834 123.738 120.134C123.866 120.478 123.909 120.822 123.909 121.165ZM131.678 122.368C131.678 122.196 131.635 121.981 131.592 121.852C131.506 121.681 131.42 121.552 131.334 121.423C131.206 121.294 131.077 121.165 130.948 121.036C130.819 120.907 130.648 120.779 130.519 120.65C130.39 120.521 130.261 120.435 130.133 120.306C130.004 120.177 129.875 120.091 129.789 119.963C129.704 119.834 129.618 119.748 129.575 119.619C129.532 119.49 129.489 119.361 129.489 119.232C129.489 119.104 129.532 118.975 129.575 118.846C129.618 118.717 129.704 118.631 129.789 118.545C129.875 118.459 129.961 118.416 130.09 118.373C130.219 118.33 130.347 118.287 130.476 118.287C130.605 118.287 130.734 118.33 130.819 118.373C130.905 118.416 131.034 118.502 131.077 118.545C131.163 118.631 131.206 118.717 131.292 118.846C131.334 118.975 131.377 119.061 131.42 119.189C131.42 119.189 131.42 119.232 131.463 119.189C131.463 119.189 131.506 119.189 131.506 119.146C131.506 119.146 131.506 119.146 131.506 119.104C131.506 119.104 131.506 119.104 131.506 119.061C131.549 118.889 131.549 118.717 131.592 118.545C131.592 118.373 131.635 118.202 131.635 118.03C131.635 118.03 131.635 117.987 131.592 117.987C131.334 117.901 131.12 117.901 130.819 117.901C130.605 117.901 130.39 117.944 130.176 117.987C129.961 118.03 129.746 118.116 129.532 118.202C129.317 118.33 129.188 118.459 129.017 118.631C128.888 118.803 128.802 119.018 128.802 119.232C128.802 119.404 128.845 119.533 128.931 119.705C129.017 119.877 129.103 120.005 129.188 120.177C129.317 120.306 129.446 120.478 129.575 120.607C129.704 120.736 129.875 120.907 130.004 121.036C130.133 121.165 130.261 121.294 130.433 121.423C130.562 121.552 130.691 121.681 130.777 121.809C130.862 121.938 130.948 122.067 131.034 122.196C131.12 122.325 131.12 122.454 131.12 122.583C131.12 122.711 131.077 122.84 131.034 122.969C130.948 123.098 130.862 123.184 130.777 123.27C130.648 123.356 130.562 123.399 130.433 123.442C130.304 123.485 130.176 123.527 130.047 123.527C129.875 123.527 129.746 123.485 129.618 123.442C129.489 123.399 129.36 123.356 129.274 123.27C129.188 123.184 129.103 123.098 129.06 122.969C129.017 122.84 128.974 122.711 128.974 122.54V122.454C128.974 122.454 128.974 122.411 128.931 122.411H128.888C128.888 122.454 128.888 122.497 128.845 122.54C128.845 122.583 128.845 122.626 128.802 122.668C128.802 122.754 128.759 122.84 128.759 122.926C128.759 123.012 128.716 123.098 128.716 123.184C128.716 123.313 128.759 123.399 128.802 123.485C128.845 123.57 128.931 123.656 129.017 123.699C129.103 123.742 129.231 123.785 129.317 123.828C129.446 123.871 129.532 123.871 129.661 123.871C129.875 123.871 130.09 123.828 130.347 123.742C130.605 123.656 130.819 123.57 130.991 123.399C131.206 123.27 131.334 123.098 131.463 122.883C131.592 122.84 131.678 122.626 131.678 122.368Z" fill="white"></path><path fill-rule="evenodd" clip-rule="evenodd" d="M147.172 123.871C147.215 123.828 147.172 123.828 147.172 123.828C147 123.828 146.829 123.785 146.7 123.699C146.571 123.613 146.442 123.527 146.357 123.356C146.142 122.969 145.97 122.583 145.799 122.196C145.627 121.809 145.455 121.38 145.284 120.993C145.112 120.564 144.94 120.177 144.811 119.748C144.64 119.318 144.511 118.932 144.382 118.545C144.339 118.459 144.339 118.373 144.296 118.33C144.253 118.244 144.253 118.159 144.211 118.116C144.211 118.116 144.211 118.073 144.168 118.073C144.125 118.073 144.125 118.073 144.125 118.116C143.996 118.459 143.867 118.846 143.738 119.232C143.61 119.619 143.481 119.963 143.352 120.349C143.18 120.865 143.009 121.337 142.837 121.852C142.665 122.325 142.494 122.84 142.279 123.313C142.193 123.485 142.107 123.613 141.979 123.742C141.85 123.828 141.678 123.914 141.464 123.957C141.464 123.957 141.421 123.957 141.464 124C141.464 124 141.464 124.043 141.507 124.043C141.549 124.043 141.635 124.043 141.678 124.043C141.721 124.043 141.807 124.043 141.85 124.043C141.936 124.043 142.022 124.043 142.107 124C142.193 123.957 142.279 124 142.365 124C142.451 124 142.537 124 142.622 124C142.708 124 142.794 124 142.88 124.043C142.923 124.043 142.966 124.043 143.009 124.043C143.052 124.043 143.095 124.043 143.138 124.043V124C143.095 124 143.052 124 143.009 124C142.966 124 142.923 123.957 142.88 123.957C142.837 123.957 142.794 123.914 142.794 123.871C142.751 123.828 142.751 123.785 142.751 123.742C142.751 123.656 142.794 123.527 142.837 123.356C142.88 123.184 142.923 123.012 143.009 122.797C143.052 122.626 143.138 122.411 143.223 122.239C143.309 122.067 143.352 121.938 143.395 121.852H145.026C145.155 122.196 145.284 122.497 145.412 122.84C145.541 123.184 145.67 123.485 145.799 123.828L145.369 124V124.043C145.369 124.043 145.369 124.086 145.412 124.043C145.455 124.043 145.455 124.043 145.498 124.043C145.541 124.043 145.584 124.043 145.584 124.043C145.713 124.043 145.841 124.043 145.97 124C146.099 124 146.228 124 146.357 124C146.399 124 146.442 124 146.528 124C146.571 124 146.657 124 146.7 124C146.743 124 146.829 124 146.914 124C147 124 147.043 124 147.129 124L147.172 123.871ZM144.811 121.337H143.395C143.524 121.036 143.61 120.736 143.695 120.435C143.781 120.134 143.867 119.834 143.996 119.533C143.996 119.447 144.039 119.404 144.082 119.318C144.125 119.232 144.125 119.189 144.168 119.104L144.811 121.337ZM154.297 122.368C154.297 122.196 154.254 121.981 154.211 121.852C154.125 121.681 154.039 121.552 153.953 121.423C153.825 121.294 153.696 121.165 153.567 121.036C153.438 120.907 153.267 120.779 153.138 120.65C153.009 120.521 152.88 120.435 152.752 120.306C152.623 120.177 152.494 120.091 152.408 119.963C152.322 119.834 152.237 119.748 152.194 119.619C152.151 119.49 152.108 119.361 152.108 119.232C152.108 119.104 152.151 118.975 152.194 118.846C152.237 118.717 152.322 118.631 152.408 118.545C152.494 118.459 152.58 118.416 152.709 118.373C152.837 118.33 152.966 118.287 153.095 118.287C153.224 118.287 153.352 118.33 153.438 118.373C153.524 118.416 153.653 118.502 153.696 118.545C153.782 118.631 153.825 118.717 153.91 118.846C153.953 118.975 153.996 119.061 154.039 119.189C154.039 119.189 154.039 119.232 154.082 119.189C154.082 119.189 154.125 119.189 154.125 119.146C154.125 119.146 154.125 119.146 154.125 119.104C154.125 119.104 154.125 119.104 154.125 119.061C154.168 118.889 154.168 118.717 154.211 118.545C154.211 118.373 154.254 118.202 154.254 118.03C154.254 118.03 154.254 117.987 154.211 117.987C153.953 117.901 153.739 117.901 153.438 117.901C153.224 117.901 153.009 117.944 152.794 117.987C152.58 118.03 152.365 118.116 152.151 118.202C151.936 118.33 151.807 118.459 151.636 118.631C151.464 118.803 151.421 119.018 151.421 119.232C151.421 119.404 151.464 119.533 151.55 119.705C151.636 119.877 151.721 120.005 151.807 120.177C151.936 120.306 152.065 120.478 152.194 120.607C152.322 120.736 152.494 120.907 152.623 121.036C152.752 121.165 152.88 121.294 153.052 121.423C153.181 121.552 153.31 121.681 153.395 121.809C153.481 121.938 153.567 122.067 153.653 122.196C153.696 122.325 153.739 122.454 153.739 122.583C153.739 122.711 153.696 122.84 153.653 122.969C153.567 123.098 153.481 123.184 153.395 123.27C153.267 123.356 153.181 123.399 153.052 123.442C152.923 123.485 152.794 123.527 152.666 123.527C152.494 123.527 152.365 123.485 152.237 123.442C152.108 123.399 151.979 123.356 151.893 123.27C151.807 123.184 151.721 123.098 151.679 122.969C151.636 122.84 151.593 122.711 151.593 122.54V122.454C151.593 122.454 151.593 122.411 151.55 122.411H151.507C151.507 122.454 151.507 122.497 151.464 122.54C151.464 122.583 151.464 122.626 151.421 122.668C151.421 122.754 151.378 122.84 151.378 122.926C151.378 123.012 151.335 123.098 151.335 123.184C151.335 123.313 151.378 123.399 151.421 123.485C151.464 123.57 151.55 123.656 151.636 123.699C151.721 123.742 151.85 123.785 151.936 123.828C152.065 123.871 152.151 123.871 152.279 123.871C152.494 123.871 152.709 123.828 152.966 123.742C153.224 123.656 153.438 123.57 153.61 123.399C153.825 123.27 153.953 123.098 154.082 122.883C154.211 122.84 154.297 122.626 154.297 122.368ZM161.378 122.368C161.378 122.196 161.336 121.981 161.293 121.852C161.207 121.681 161.121 121.552 161.035 121.423C160.906 121.294 160.778 121.165 160.649 121.036C160.52 120.907 160.348 120.779 160.22 120.65C160.091 120.521 159.962 120.435 159.833 120.306C159.705 120.177 159.576 120.091 159.49 119.963C159.404 119.834 159.318 119.748 159.275 119.619C159.232 119.49 159.19 119.361 159.19 119.232C159.19 119.104 159.232 118.975 159.275 118.846C159.318 118.717 159.404 118.631 159.49 118.545C159.576 118.459 159.662 118.416 159.79 118.373C159.919 118.33 160.048 118.287 160.177 118.287C160.305 118.287 160.434 118.33 160.52 118.373C160.606 118.416 160.735 118.502 160.778 118.545C160.863 118.631 160.906 118.717 160.992 118.846C161.035 118.975 161.078 119.061 161.121 119.189C161.121 119.189 161.121 119.232 161.164 119.189C161.164 119.189 161.207 119.189 161.207 119.146C161.207 119.146 161.207 119.146 161.207 119.104C161.207 119.104 161.207 119.104 161.207 119.061C161.25 118.889 161.25 118.717 161.293 118.545C161.293 118.373 161.336 118.202 161.336 118.03C161.336 118.03 161.336 117.987 161.293 117.987C161.035 117.901 160.82 117.901 160.52 117.901C160.305 117.901 160.091 117.944 159.876 117.987C159.662 118.03 159.447 118.116 159.232 118.202C159.018 118.33 158.889 118.459 158.717 118.631C158.589 118.803 158.503 119.018 158.503 119.232C158.503 119.404 158.546 119.533 158.632 119.705C158.717 119.877 158.803 120.005 158.889 120.177C159.018 120.306 159.147 120.478 159.275 120.607C159.404 120.736 159.576 120.907 159.705 121.036C159.833 121.165 159.962 121.294 160.134 121.423C160.263 121.552 160.391 121.681 160.477 121.809C160.563 121.938 160.649 122.067 160.735 122.196C160.778 122.325 160.82 122.454 160.82 122.583C160.82 122.711 160.778 122.84 160.735 122.969C160.649 123.098 160.563 123.184 160.477 123.27C160.348 123.356 160.263 123.399 160.134 123.442C160.005 123.485 159.876 123.527 159.747 123.527C159.576 123.527 159.447 123.485 159.318 123.442C159.19 123.399 159.061 123.356 158.975 123.27C158.889 123.184 158.803 123.098 158.76 122.969C158.717 122.84 158.674 122.711 158.674 122.54V122.454C158.674 122.454 158.674 122.411 158.632 122.411H158.589C158.589 122.454 158.589 122.497 158.546 122.54C158.546 122.583 158.546 122.626 158.503 122.668C158.503 122.754 158.46 122.84 158.46 122.926C158.46 123.012 158.417 123.098 158.417 123.184C158.417 123.313 158.46 123.399 158.503 123.485C158.546 123.57 158.632 123.656 158.717 123.699C158.803 123.742 158.932 123.785 159.018 123.828C159.147 123.871 159.232 123.871 159.361 123.871C159.576 123.871 159.79 123.828 160.048 123.742C160.305 123.656 160.52 123.57 160.692 123.399C160.906 123.27 161.035 123.098 161.164 122.883C161.336 122.84 161.378 122.626 161.378 122.368ZM171.465 121.208C171.465 120.779 171.379 120.349 171.207 119.963C171.035 119.576 170.821 119.232 170.52 118.932C170.22 118.631 169.919 118.416 169.533 118.244C169.147 118.073 168.718 117.987 168.289 117.987C168.289 117.987 168.246 117.987 168.203 117.987H168.16C167.645 118.073 167.258 118.202 166.915 118.373C166.572 118.545 166.314 118.76 166.1 119.018C165.885 119.275 165.756 119.576 165.627 119.963C165.542 120.349 165.499 120.779 165.499 121.251C165.499 121.466 165.542 121.681 165.627 121.938C165.713 122.153 165.842 122.368 165.971 122.583C166.143 122.797 166.314 122.969 166.486 123.141C166.7 123.313 166.915 123.485 167.13 123.613C167.344 123.742 167.559 123.828 167.816 123.914C168.031 124 168.289 124.043 168.503 124.043C168.889 124.043 169.276 123.957 169.619 123.828C169.962 123.699 170.306 123.485 170.563 123.227C170.821 122.969 171.035 122.668 171.207 122.325C171.379 121.981 171.465 121.595 171.465 121.208ZM170.778 121.165C170.778 121.509 170.735 121.809 170.649 122.11C170.563 122.411 170.392 122.668 170.22 122.926C170.048 123.141 169.791 123.356 169.533 123.485C169.276 123.613 168.932 123.699 168.589 123.699C168.203 123.699 167.859 123.613 167.559 123.442C167.258 123.27 167.001 123.055 166.829 122.754C166.615 122.497 166.486 122.153 166.357 121.809C166.271 121.466 166.185 121.122 166.185 120.779C166.185 120.435 166.228 120.134 166.314 119.834C166.4 119.533 166.572 119.275 166.743 119.061C166.915 118.846 167.173 118.674 167.43 118.545C167.688 118.416 168.031 118.33 168.374 118.33C168.761 118.33 169.104 118.416 169.404 118.588C169.705 118.76 169.962 118.975 170.134 119.232C170.349 119.49 170.477 119.834 170.606 120.134C170.735 120.478 170.778 120.822 170.778 121.165ZM180.735 122.754C180.735 122.668 180.735 122.583 180.692 122.497C180.692 122.497 180.692 122.454 180.649 122.454H180.607C180.521 122.668 180.435 122.84 180.306 122.969C180.22 123.098 180.091 123.227 179.963 123.356C179.834 123.442 179.705 123.527 179.534 123.57C179.362 123.613 179.19 123.656 178.933 123.656C178.546 123.656 178.16 123.57 177.817 123.399C177.473 123.227 177.173 123.012 176.958 122.754C176.701 122.497 176.529 122.153 176.4 121.809C176.272 121.466 176.186 121.079 176.186 120.693C176.186 120.306 176.229 120.005 176.357 119.705C176.486 119.404 176.658 119.146 176.83 118.932C177.044 118.717 177.302 118.545 177.602 118.416C177.903 118.287 178.246 118.244 178.589 118.244C178.804 118.244 179.018 118.287 179.233 118.33C179.448 118.373 179.619 118.459 179.791 118.588C179.963 118.717 180.091 118.846 180.177 119.018C180.263 119.189 180.349 119.404 180.392 119.619C180.392 119.619 180.392 119.662 180.435 119.662C180.435 119.662 180.478 119.662 180.478 119.619C180.521 119.361 180.564 119.146 180.564 118.932C180.607 118.717 180.607 118.459 180.607 118.202C180.607 118.202 180.607 118.159 180.564 118.159C180.435 118.159 180.306 118.116 180.177 118.116C180.049 118.116 179.92 118.073 179.791 118.073C179.619 118.03 179.448 118.03 179.233 117.987C179.061 117.944 178.847 117.944 178.675 117.944C178.503 117.944 178.332 117.944 178.117 117.987C177.903 117.987 177.731 118.03 177.516 118.073C177.302 118.116 177.13 118.202 176.958 118.287C176.787 118.373 176.615 118.459 176.486 118.588C176.315 118.76 176.186 118.932 176.057 119.104C175.928 119.275 175.842 119.49 175.757 119.705C175.671 119.92 175.628 120.134 175.585 120.349C175.542 120.564 175.499 120.779 175.499 120.993C175.499 121.423 175.585 121.809 175.714 122.153C175.842 122.497 176.057 122.797 176.315 123.055C176.572 123.313 176.872 123.485 177.259 123.656C177.602 123.785 177.988 123.871 178.418 123.871C178.761 123.871 179.104 123.871 179.405 123.828C179.748 123.785 180.049 123.742 180.392 123.699H180.435C180.521 123.57 180.564 123.399 180.607 123.227C180.735 123.098 180.735 122.926 180.735 122.754ZM186.83 123.871V123.828C186.572 123.785 186.401 123.742 186.315 123.613C186.229 123.485 186.143 123.313 186.143 123.055V118.76C186.143 118.674 186.143 118.588 186.186 118.545C186.229 118.502 186.229 118.459 186.315 118.416C186.358 118.373 186.401 118.373 186.487 118.33C186.529 118.33 186.615 118.287 186.701 118.287C186.701 118.287 186.701 118.287 186.701 118.244C186.701 118.244 186.701 118.202 186.658 118.202C186.529 118.202 186.358 118.244 186.229 118.244C186.1 118.244 185.929 118.244 185.8 118.244C185.499 118.244 185.199 118.244 184.898 118.202C184.898 118.202 184.856 118.202 184.856 118.244C184.856 118.244 184.856 118.287 184.898 118.287C185.027 118.287 185.199 118.33 185.285 118.416C185.414 118.502 185.456 118.588 185.456 118.76V123.098C185.456 123.485 185.285 123.742 184.941 123.871C184.941 123.871 184.898 123.914 184.941 123.914C184.941 123.914 184.941 123.957 184.984 123.957C185.199 123.957 185.371 123.957 185.585 123.957C185.8 123.957 185.971 123.957 186.186 123.957C186.315 123.957 186.444 123.957 186.529 123.957C186.572 123.871 186.701 123.871 186.83 123.871ZM196.659 123.871C196.701 123.871 196.701 123.871 196.659 123.871C196.701 123.828 196.659 123.828 196.659 123.828C196.487 123.828 196.315 123.785 196.186 123.699C196.058 123.613 195.929 123.527 195.843 123.356C195.628 122.969 195.457 122.583 195.285 122.196C195.113 121.809 194.942 121.38 194.77 120.993C194.598 120.564 194.427 120.177 194.298 119.748C194.126 119.318 193.997 118.932 193.869 118.545C193.826 118.459 193.826 118.373 193.783 118.33C193.74 118.244 193.74 118.159 193.697 118.116C193.697 118.116 193.697 118.073 193.654 118.073C193.654 118.073 193.611 118.073 193.611 118.116C193.482 118.459 193.354 118.846 193.225 119.232C193.096 119.619 192.967 119.963 192.839 120.349C192.667 120.865 192.495 121.337 192.324 121.852C192.152 122.325 191.98 122.84 191.766 123.313C191.68 123.485 191.594 123.613 191.465 123.742C191.336 123.828 191.165 123.914 190.95 123.957C190.95 123.957 190.907 123.957 190.95 124C190.95 124 190.95 124.043 190.993 124.043C191.036 124.043 191.122 124.043 191.165 124.043C191.208 124.043 191.294 124.043 191.336 124.043C191.422 124.043 191.508 124.043 191.594 124C191.68 123.957 191.766 124 191.851 124C191.937 124 192.023 124 192.109 124C192.195 124 192.281 124 192.367 124.043C192.409 124.043 192.452 124.043 192.495 124.043C192.538 124.043 192.581 124.043 192.624 124.043V124C192.581 124 192.538 124 192.495 124C192.452 124 192.409 123.957 192.367 123.957C192.324 123.957 192.281 123.914 192.281 123.871C192.238 123.828 192.238 123.785 192.238 123.742C192.238 123.656 192.281 123.527 192.324 123.356C192.367 123.184 192.409 123.012 192.495 122.797C192.538 122.626 192.624 122.411 192.71 122.239C192.796 122.067 192.839 121.938 192.882 121.852H194.513C194.641 122.196 194.77 122.497 194.899 122.84C195.028 123.184 195.156 123.485 195.285 123.828L194.856 124V124.043C194.856 124.043 194.856 124.086 194.899 124.043C194.942 124.043 194.942 124.043 194.985 124.043C195.028 124.043 195.07 124.043 195.07 124.043C195.199 124.043 195.328 124.043 195.457 124C195.586 124 195.714 124 195.843 124C195.886 124 195.929 124 196.015 124C196.058 124 196.143 124 196.186 124C196.229 124 196.315 124 196.401 124C196.487 124 196.53 124 196.616 124L196.659 123.871ZM194.298 121.337H192.882C193.01 121.036 193.096 120.736 193.182 120.435C193.268 120.134 193.354 119.834 193.482 119.533C193.482 119.447 193.525 119.404 193.568 119.318C193.611 119.232 193.611 119.189 193.654 119.104L194.298 121.337ZM206.573 120.95C206.573 120.907 206.573 120.907 206.573 120.865C206.573 120.822 206.573 120.822 206.573 120.779C206.573 120.736 206.573 120.736 206.573 120.693C206.573 120.65 206.573 120.65 206.573 120.607C206.573 120.263 206.487 119.963 206.315 119.662C206.144 119.361 205.929 119.104 205.672 118.889C205.414 118.674 205.114 118.502 204.77 118.373C204.427 118.244 204.127 118.202 203.783 118.202C203.654 118.202 203.526 118.202 203.354 118.202C203.225 118.202 203.054 118.202 202.925 118.202C202.796 118.202 202.667 118.202 202.496 118.244C202.367 118.244 202.195 118.244 202.066 118.244C201.938 118.244 201.852 118.244 201.723 118.244C201.594 118.244 201.508 118.244 201.38 118.202C201.294 118.202 201.208 118.202 201.122 118.202C201.036 118.202 200.95 118.202 200.822 118.202C200.779 118.202 200.779 118.202 200.779 118.244C200.779 118.287 200.822 118.287 200.865 118.33C200.908 118.33 200.95 118.33 200.993 118.373C201.036 118.373 201.079 118.373 201.122 118.416C201.165 118.416 201.208 118.459 201.251 118.459C201.294 118.502 201.337 118.502 201.337 118.588C201.38 118.631 201.38 118.717 201.38 118.803V123.141C201.38 123.27 201.38 123.356 201.38 123.442C201.38 123.527 201.337 123.613 201.294 123.656C201.251 123.699 201.208 123.785 201.122 123.828C201.036 123.871 200.95 123.914 200.865 123.914C200.865 123.914 200.822 123.914 200.865 123.957C200.865 123.957 200.865 124 200.908 124C201.122 124 201.337 124 201.551 124C201.766 124 201.981 124.043 202.195 124.043C202.367 124.043 202.539 124.086 202.753 124.086C202.925 124.086 203.096 124.086 203.311 124.086C203.783 124.086 204.255 124.043 204.642 123.914C205.028 123.785 205.371 123.613 205.672 123.356C205.972 123.098 206.187 122.797 206.358 122.411C206.487 121.895 206.573 121.466 206.573 120.95ZM205.843 121.208C205.843 121.595 205.8 121.981 205.672 122.282C205.543 122.583 205.371 122.84 205.157 123.055C204.942 123.27 204.642 123.399 204.341 123.527C204.041 123.613 203.654 123.699 203.268 123.699C203.096 123.699 202.925 123.699 202.796 123.656C202.667 123.656 202.539 123.613 202.453 123.527C202.367 123.485 202.281 123.356 202.238 123.27C202.195 123.141 202.152 122.969 202.152 122.797V118.545C202.281 118.502 202.41 118.459 202.581 118.459C202.71 118.459 202.882 118.416 203.011 118.416C203.44 118.416 203.826 118.502 204.169 118.631C204.513 118.76 204.813 118.932 205.071 119.189C205.328 119.447 205.543 119.705 205.672 120.091C205.8 120.392 205.843 120.779 205.843 121.208ZM216.659 121.208C216.659 120.779 216.573 120.349 216.402 119.963C216.23 119.576 216.015 119.232 215.715 118.932C215.414 118.631 215.114 118.416 214.728 118.244C214.341 118.073 213.912 117.987 213.483 117.987C213.483 117.987 213.44 117.987 213.397 117.987H213.354C212.839 118.073 212.453 118.202 212.11 118.373C211.766 118.545 211.509 118.76 211.294 119.018C211.08 119.275 210.951 119.576 210.822 119.963C210.736 120.349 210.693 120.779 210.693 121.251C210.693 121.466 210.736 121.681 210.822 121.938C210.908 122.153 211.037 122.368 211.165 122.583C211.337 122.797 211.509 122.969 211.68 123.141C211.895 123.313 212.11 123.485 212.324 123.613C212.539 123.742 212.753 123.828 213.011 123.914C213.226 124 213.483 124.043 213.698 124.043C214.084 124.043 214.47 123.957 214.814 123.828C215.157 123.699 215.5 123.485 215.758 123.227C216.015 122.969 216.23 122.668 216.402 122.325C216.573 121.981 216.659 121.595 216.659 121.208ZM215.972 121.165C215.972 121.509 215.929 121.809 215.844 122.11C215.758 122.411 215.586 122.668 215.414 122.926C215.243 123.141 214.985 123.356 214.728 123.485C214.47 123.613 214.127 123.699 213.784 123.699C213.397 123.699 213.054 123.613 212.753 123.442C212.453 123.27 212.195 123.055 212.024 122.754C211.809 122.497 211.68 122.153 211.552 121.809C211.466 121.466 211.38 121.122 211.38 120.779C211.38 120.435 211.423 120.134 211.509 119.834C211.595 119.533 211.766 119.275 211.938 119.061C212.11 118.846 212.367 118.674 212.625 118.545C212.882 118.416 213.226 118.33 213.569 118.33C213.955 118.33 214.299 118.416 214.599 118.588C214.899 118.76 215.157 118.975 215.329 119.232C215.543 119.49 215.672 119.834 215.801 120.134C215.929 120.478 215.972 120.822 215.972 121.165ZM223.741 122.368C223.741 122.196 223.698 121.981 223.655 121.852C223.569 121.681 223.483 121.552 223.398 121.423C223.269 121.294 223.14 121.165 223.011 121.036C222.882 120.907 222.711 120.779 222.582 120.65C222.453 120.521 222.325 120.435 222.196 120.306C222.067 120.177 221.938 120.091 221.852 119.963C221.767 119.834 221.681 119.748 221.638 119.619C221.595 119.49 221.552 119.361 221.552 119.232C221.552 119.104 221.595 118.975 221.638 118.846C221.681 118.717 221.767 118.631 221.852 118.545C221.938 118.459 222.024 118.416 222.153 118.373C222.282 118.33 222.41 118.287 222.539 118.287C222.668 118.287 222.797 118.33 222.883 118.373C222.968 118.416 223.097 118.502 223.14 118.545C223.226 118.631 223.269 118.717 223.355 118.846C223.398 118.975 223.44 119.061 223.483 119.189C223.483 119.189 223.483 119.232 223.526 119.189C223.526 119.189 223.569 119.189 223.569 119.146C223.569 119.146 223.569 119.146 223.569 119.104C223.569 119.104 223.569 119.104 223.569 119.061C223.612 118.889 223.612 118.717 223.655 118.545C223.655 118.373 223.698 118.202 223.698 118.03C223.698 118.03 223.698 117.987 223.655 117.987C223.398 117.901 223.183 117.901 222.883 117.901C222.668 117.901 222.453 117.944 222.239 117.987C222.024 118.03 221.81 118.116 221.595 118.202C221.38 118.33 221.252 118.459 221.08 118.631C220.951 118.803 220.865 119.018 220.865 119.232C220.865 119.404 220.908 119.533 220.994 119.705C221.08 119.877 221.166 120.005 221.252 120.177C221.38 120.306 221.509 120.478 221.638 120.607C221.767 120.736 221.938 120.907 222.067 121.036C222.196 121.165 222.325 121.294 222.496 121.423C222.625 121.552 222.754 121.681 222.84 121.809C222.925 121.938 223.011 122.067 223.097 122.196C223.14 122.325 223.183 122.454 223.183 122.583C223.183 122.711 223.14 122.84 223.097 122.969C223.011 123.098 222.925 123.184 222.84 123.27C222.711 123.356 222.625 123.399 222.496 123.442C222.367 123.485 222.239 123.527 222.11 123.527C221.938 123.527 221.81 123.485 221.681 123.442C221.552 123.399 221.423 123.356 221.337 123.27C221.252 123.184 221.166 123.098 221.123 122.969C221.08 122.84 221.037 122.711 221.037 122.54V122.454C221.037 122.454 221.037 122.411 220.994 122.411H220.951C220.951 122.454 220.951 122.497 220.908 122.54C220.908 122.583 220.908 122.626 220.865 122.668C220.865 122.754 220.822 122.84 220.822 122.926C220.822 123.012 220.779 123.098 220.779 123.184C220.779 123.313 220.822 123.399 220.865 123.485C220.908 123.57 220.994 123.656 221.08 123.699C221.166 123.742 221.294 123.785 221.38 123.828C221.509 123.871 221.595 123.871 221.724 123.871C221.938 123.871 222.153 123.828 222.41 123.742C222.668 123.656 222.883 123.57 223.054 123.399C223.269 123.27 223.398 123.098 223.526 122.883C223.655 122.84 223.741 122.626 223.741 122.368Z" fill="white"></path><path fill-rule="evenodd" clip-rule="evenodd" d="M130.176 53.8607C131.893 55.2351 133.738 56.3948 135.712 57.2538C137.215 57.984 137.472 57.984 138.846 57.2968C140.047 56.6095 141.034 56.0512 141.034 54.7197V27.4028C141.034 25.8136 141.292 24.3532 141.807 22.9358C142.322 21.5185 143.052 20.2299 143.91 19.0702C144.769 17.9106 145.799 16.8368 146.957 15.8918C148.116 14.9469 149.361 14.1308 150.649 13.5295C150.734 13.4866 150.82 13.4866 150.863 13.5725C150.906 13.6584 150.906 13.7443 150.863 13.8302C149.833 14.9469 148.932 15.9777 148.202 16.9656C147.472 17.9535 146.872 18.9843 146.399 20.0581C145.927 21.1319 145.584 22.2916 145.369 23.5372C145.155 24.7827 145.026 26.2431 145.026 27.8752V53.4312C145.842 52.7439 146.657 52.0138 147.43 51.2407C150.091 48.5777 152.194 45.6141 153.91 42.2209C156.014 38.0546 157.301 33.5018 158.031 28.949C158.76 24.3962 158.932 19.7145 158.803 15.2476C158.803 15.0758 158.675 14.904 158.417 14.861C156.443 14.3027 154.683 13.4866 153.052 12.5417C151.378 11.5967 149.833 10.48 148.202 9.32032C148.03 9.19147 147.902 9.10556 147.73 8.97671C146.442 8.03179 145.112 7.08686 143.696 6.31374C142.88 5.88423 141.979 5.19701 141.077 5.75537C140.434 6.14193 140.133 6.91505 140.133 8.07474V38.7848C140.133 40.5458 139.833 42.2209 139.232 43.8101C138.631 45.3993 137.858 46.8596 136.871 48.1482C135.884 49.4797 134.725 50.6823 133.438 51.7561C132.322 52.4862 131.292 53.2164 130.176 53.8607Z" fill="#A3A372"></path><path fill-rule="evenodd" clip-rule="evenodd" d="M132.923 5.32612C132.751 5.36907 132.622 5.45497 132.45 5.49792C132.322 5.54087 132.236 5.58383 132.15 5.62678C130.262 6.4858 128.588 7.68843 127 8.84811C126.828 8.97697 126.699 9.06287 126.528 9.19172C124.897 10.3514 123.351 11.4681 121.678 12.4131C120.047 13.358 118.287 14.1741 116.313 14.7324C116.098 14.7754 115.926 14.9472 115.926 15.119C115.798 19.5859 115.969 24.2676 116.699 28.8204C117.429 33.4162 118.716 37.926 120.819 42.0923C122.45 45.3995 124.596 48.4061 127.257 51.0691C127.987 51.7993 128.759 52.5294 129.575 53.2167C130.476 52.1858 131.292 51.2409 131.978 50.3389C132.794 49.2222 133.481 48.0625 134.039 46.8599C134.596 45.6573 134.983 44.3687 135.24 42.9513C135.498 41.5339 135.627 39.9018 135.627 38.0979V8.07499C135.627 6.91531 135.283 6.27104 134.339 5.62678C133.824 5.32612 133.481 5.28317 132.923 5.32612Z" fill="#C4C497"></path></g><defs><clipPath id="clip0_50_653"><rect width="274" height="124" fill="white"></rect></clipPath></defs></svg>