<svg xmlns="http://www.w3.org/2000/svg" width="78" height="78" viewBox="0 0 78 78" fill="none"><path d="M39 24.375C36.1075 24.375 33.2799 25.2327 30.8748 26.8398C28.4697 28.4468 26.5952 30.7309 25.4883 33.4033C24.3813 36.0756 24.0917 39.0162 24.656 41.8532C25.2203 44.6902 26.6132 47.2961 28.6586 49.3414C30.7039 51.3868 33.3098 52.7797 36.1468 53.344C38.9838 53.9083 41.9244 53.6187 44.5967 52.5117C47.2691 51.4048 49.5532 49.5303 51.1602 47.1252C52.7673 44.7201 53.625 41.8926 53.625 39C53.6208 35.1225 52.0786 31.405 49.3368 28.6632C46.595 25.9214 42.8775 24.3792 39 24.375ZM39 51.1875C36.5895 51.1875 34.2332 50.4727 32.229 49.1335C30.2248 47.7944 28.6627 45.8909 27.7402 43.664C26.8178 41.437 26.5764 38.9865 27.0467 36.6223C27.5169 34.2582 28.6777 32.0866 30.3821 30.3821C32.0866 28.6777 34.2582 27.5169 36.6223 27.0467C38.9865 26.5764 41.437 26.8178 43.664 27.7402C45.8909 28.6627 47.7944 30.2248 49.1335 32.229C50.4727 34.2332 51.1875 36.5895 51.1875 39C51.184 42.2312 49.8988 45.3291 47.6139 47.6139C45.3291 49.8988 42.2312 51.184 39 51.1875Z" fill="#C4C496"></path><path d="M38.9135 33.6716C38.8229 33.4455 38.6665 33.2517 38.4647 33.1153C38.2629 32.9789 38.0249 32.9061 37.7812 32.9063H35.3438C35.1001 32.9061 34.8621 32.9789 34.6603 33.1153C34.4585 33.2517 34.3021 33.4455 34.2115 33.6716L31.774 39.7654C31.7169 39.9097 31.6876 40.0635 31.6875 40.2188V45.0938H34.125V41.4375H39V45.0938H41.4375V40.2188C41.4374 40.0635 41.4081 39.9097 41.351 39.7654L38.9135 33.6716ZM36.1688 35.3438H36.9562L38.4187 39H34.7063L36.1688 35.3438Z" fill="#C4C496"></path><path d="M45.0938 32.9062H42.6562V45.0938H45.0938V32.9062Z" fill="#C4C496"></path><path d="M70.6874 13.4063C72.0496 13.4104 73.3742 12.9592 74.4507 12.1245C75.5272 11.2898 76.2941 10.1194 76.6295 8.79908C76.9649 7.47878 76.8496 6.08428 76.3019 4.83699C75.7542 3.5897 74.8055 2.56112 73.6065 1.91457C72.4075 1.26801 71.0269 1.04054 69.6838 1.26827C68.3407 1.49601 67.1122 2.16589 66.1934 3.17156C65.2745 4.17722 64.7179 5.46103 64.612 6.81914C64.5061 8.17725 64.857 9.53182 65.6089 10.6678L57.0971 19.1795L55.3738 17.455C55.1664 17.2476 54.8911 17.1219 54.5985 17.1011C54.3059 17.0803 54.0156 17.1657 53.7809 17.3416L51.1703 19.299C50.5609 18.9187 49.9211 18.5775 49.2776 18.2581L53.2678 14.268C53.4964 14.0394 53.6248 13.7295 53.6249 13.4063V10.7957C54.7737 10.4991 55.775 9.79364 56.4409 8.8116C57.1069 7.82956 57.3918 6.63835 57.2423 5.46126C57.0928 4.28418 56.5191 3.20203 55.6288 2.41765C54.7385 1.63328 53.5927 1.20053 52.4061 1.20053C51.2196 1.20053 50.0738 1.63328 49.1835 2.41765C48.2932 3.20203 47.7195 4.28418 47.57 5.46126C47.4205 6.63835 47.7054 7.82956 48.3713 8.8116C49.0373 9.79364 50.0385 10.4991 51.1874 10.7957V12.9017L46.8547 17.2344C46.0268 16.9305 45.182 16.6745 44.3246 16.4678L43.8627 13.2332C43.8211 12.9429 43.6761 12.6774 43.4545 12.4853C43.2329 12.2932 42.9494 12.1875 42.6561 12.1875H35.3436C35.0504 12.1875 34.7669 12.2932 34.5453 12.4853C34.3236 12.6774 34.1787 12.9429 34.1371 13.2332L33.6752 16.4678C32.8178 16.6745 31.973 16.9305 31.145 17.2344L26.8124 12.9017V10.7957C27.9612 10.4991 28.9625 9.79364 29.6284 8.8116C30.2944 7.82956 30.5793 6.63835 30.4298 5.46126C30.2803 4.28418 29.7066 3.20203 28.8163 2.41765C27.926 1.63328 26.7802 1.20053 25.5936 1.20053C24.4071 1.20053 23.2613 1.63328 22.371 2.41765C21.4807 3.20203 20.907 4.28418 20.7575 5.46126C20.608 6.63835 20.8929 7.82956 21.5588 8.8116C22.2248 9.79364 23.226 10.4991 24.3749 10.7957V13.4063C24.375 13.7295 24.5034 14.0394 24.732 14.268L28.7222 18.2581C28.0787 18.5775 27.4437 18.9187 26.8294 19.299L24.2189 17.3416C23.9842 17.1657 23.6939 17.0803 23.4013 17.1011C23.1087 17.1219 22.8334 17.2476 22.626 17.455L20.9027 19.1795L12.3909 10.6678C13.2271 9.40443 13.5643 7.87557 13.3371 6.37771C13.1099 4.87985 12.3345 3.51975 11.1613 2.56121C9.98807 1.60267 8.50068 1.114 6.9876 1.18999C5.47451 1.26598 4.04357 1.90121 2.97231 2.97247C1.90104 4.04373 1.26582 5.47467 1.18983 6.98776C1.11384 8.50085 1.6025 9.98823 2.56105 11.1614C3.51959 12.3346 4.87969 13.11 6.37755 13.3372C7.87541 13.5644 9.40427 13.2273 10.6676 12.3911L19.1794 20.9028L17.4548 22.6261C17.2474 22.8336 17.1217 23.1088 17.1009 23.4014C17.0801 23.6941 17.1655 23.9843 17.3415 24.219L19.2988 26.8284C18.877 27.5211 18.4917 28.2355 18.1446 28.9685L13.9083 24.7321C13.6798 24.5036 13.3698 24.3751 13.0466 24.375H10.7956C10.4989 23.2262 9.79348 22.2249 8.81144 21.559C7.82939 20.8931 6.63819 20.6081 5.4611 20.7577C4.28402 20.9072 3.20186 21.4808 2.41749 22.3711C1.63312 23.2614 1.20037 24.4073 1.20037 25.5938C1.20037 26.7803 1.63312 27.9262 2.41749 28.8165C3.20186 29.7068 4.28402 30.2804 5.4611 30.4299C6.63819 30.5795 7.82939 30.2945 8.81144 29.6286C9.79348 28.9627 10.4989 27.9614 10.7956 26.8125H12.542L17.1379 31.4085C16.8755 32.152 16.6518 32.9086 16.4676 33.6753L13.2331 34.1372C12.9428 34.1789 12.6772 34.3238 12.4851 34.5454C12.2931 34.7671 12.1873 35.0505 12.1874 35.3438V42.6563C12.1873 42.9496 12.2931 43.233 12.4851 43.4547C12.6772 43.6763 12.9428 43.8212 13.2331 43.8629L16.4676 44.3248C16.6518 45.0915 16.8755 45.8481 17.1379 46.5916L12.542 51.1875H10.7956C10.4989 50.0387 9.79348 49.0374 8.81144 48.3715C7.82939 47.7056 6.63819 47.4206 5.4611 47.5702C4.28402 47.7197 3.20186 48.2933 2.41749 49.1836C1.63312 50.0739 1.20037 51.2198 1.20037 52.4063C1.20037 53.5928 1.63312 54.7387 2.41749 55.629C3.20186 56.5193 4.28402 57.0929 5.4611 57.2424C6.63819 57.392 7.82939 57.107 8.81144 56.4411C9.79348 55.7752 10.4989 54.7739 10.7956 53.625H13.0466C13.3698 53.625 13.6798 53.4965 13.9083 53.268L18.1446 49.0316C18.4917 49.7642 18.877 50.4782 19.2988 51.1705L17.3415 53.781C17.1655 54.0157 17.0801 54.306 17.1009 54.5987C17.1217 54.8913 17.2474 55.1665 17.4548 55.374L19.1794 57.0973L10.6676 65.609C9.40427 64.7728 7.87541 64.4357 6.37755 64.6629C4.87969 64.8901 3.51959 65.6655 2.56105 66.8387C1.6025 68.0119 1.11384 69.4992 1.18983 71.0123C1.26582 72.5254 1.90104 73.9564 2.97231 75.0276C4.04357 76.0989 5.47451 76.7341 6.9876 76.8101C8.50068 76.8861 9.98807 76.3974 11.1613 75.4389C12.3345 74.4803 13.1099 73.1202 13.3371 71.6224C13.5643 70.1245 13.2271 68.5957 12.3909 67.3323L20.9027 58.8206L22.626 60.5451C22.8334 60.7525 23.1087 60.8782 23.4013 60.899C23.6939 60.9198 23.9842 60.8344 24.2189 60.6585L26.8282 58.7011C27.4376 59.0814 28.0774 59.4226 28.7222 59.742L24.732 63.7321C24.5034 63.9606 24.375 64.2706 24.3749 64.5938V67.2044C23.226 67.501 22.2248 68.2065 21.5588 69.1885C20.8929 70.1705 20.608 71.3617 20.7575 72.5388C20.907 73.7159 21.4807 74.7981 22.371 75.5824C23.2613 76.3668 24.4071 76.7996 25.5936 76.7996C26.7802 76.7996 27.926 76.3668 28.8163 75.5824C29.7066 74.7981 30.2803 73.7159 30.4298 72.5388C30.5793 71.3617 30.2944 70.1705 29.6284 69.1885C28.9625 68.2065 27.9612 67.501 26.8124 67.2044V65.0984L31.145 60.7657C31.973 61.0695 32.8178 61.3254 33.6752 61.5323L34.1371 64.7669C34.1787 65.0572 34.3236 65.3227 34.5453 65.5148C34.7669 65.7069 35.0504 65.8126 35.3436 65.8125H42.6561C42.9494 65.8126 43.2329 65.7069 43.4545 65.5148C43.6761 65.3227 43.8211 65.0572 43.8627 64.7669L44.3246 61.5323C45.182 61.3254 46.0267 61.0695 46.8547 60.7657L51.1874 65.0984V67.2044C50.0385 67.501 49.0373 68.2065 48.3713 69.1885C47.7054 70.1705 47.4205 71.3617 47.57 72.5388C47.7195 73.7159 48.2932 74.7981 49.1835 75.5824C50.0738 76.3668 51.2196 76.7996 52.4061 76.7996C53.5927 76.7996 54.7385 76.3668 55.6288 75.5824C56.5191 74.7981 57.0928 73.7159 57.2423 72.5388C57.3918 71.3617 57.1069 70.1705 56.4409 69.1885C55.775 68.2065 54.7737 67.501 53.6249 67.2044V64.5938C53.6248 64.2706 53.4964 63.9606 53.2678 63.7321L49.2776 59.742C49.9223 59.4226 50.5561 59.0814 51.1715 58.7011L53.7809 60.6585C54.0156 60.8344 54.3059 60.9198 54.5985 60.899C54.8911 60.8782 55.1664 60.7525 55.3738 60.5451L57.0971 58.8206L65.6089 67.3323C64.7727 68.5957 64.4355 70.1245 64.6627 71.6224C64.8899 73.1202 65.6653 74.4803 66.8385 75.4389C68.0117 76.3974 69.4991 76.8861 71.0122 76.8101C72.5253 76.7341 73.9562 76.0989 75.0275 75.0276C76.0987 73.9564 76.734 72.5254 76.8099 71.0123C76.8859 69.4992 76.3973 68.0119 75.4387 66.8387C74.4802 65.6655 73.1201 64.8901 71.6222 64.6629C70.1244 64.4357 68.5955 64.7728 67.3322 65.609L58.8204 57.0973L60.5449 55.374C60.7524 55.1665 60.878 54.8913 60.8989 54.5987C60.9197 54.306 60.8343 54.0157 60.6583 53.781L58.701 51.1705C59.0812 50.5611 59.4225 49.9213 59.7418 49.2778L63.732 53.268C63.9605 53.4965 64.2704 53.625 64.5936 53.625H67.2042C67.5008 54.7739 68.2063 55.7752 69.1883 56.4411C70.1704 57.107 71.3616 57.392 72.5387 57.2424C73.7158 57.0929 74.7979 56.5193 75.5823 55.629C76.3667 54.7387 76.7994 53.5928 76.7994 52.4063C76.7994 51.2198 76.3667 50.0739 75.5823 49.1836C74.7979 48.2933 73.7158 47.7197 72.5387 47.5702C71.3616 47.4206 70.1704 47.7056 69.1883 48.3715C68.2063 49.0374 67.5008 50.0387 67.2042 51.1875H65.0982L60.7655 46.8549C61.0693 46.0269 61.3253 45.1821 61.5321 44.3248L64.7667 43.8629C65.057 43.8212 65.3226 43.6763 65.5146 43.4547C65.7067 43.233 65.8124 42.9496 65.8124 42.6563V35.3438C65.8124 35.0505 65.7067 34.7671 65.5146 34.5454C65.3226 34.3238 65.057 34.1789 64.7667 34.1372L61.5321 33.6753C61.3253 32.818 61.0693 31.9732 60.7655 31.1452L65.0982 26.8125H67.2042C67.5008 27.9614 68.2063 28.9627 69.1883 29.6286C70.1704 30.2945 71.3616 30.5795 72.5387 30.4299C73.7158 30.2804 74.7979 29.7068 75.5823 28.8165C76.3667 27.9262 76.7994 26.7803 76.7994 25.5938C76.7994 24.4073 76.3667 23.2614 75.5823 22.3711C74.7979 21.4808 73.7158 20.9072 72.5387 20.7577C71.3616 20.6081 70.1704 20.8931 69.1883 21.559C68.2063 22.2249 67.5008 23.2262 67.2042 24.375H64.5936C64.2704 24.3751 63.9605 24.5036 63.732 24.7321L59.7418 28.7223C59.4225 28.0776 59.0812 27.4439 58.701 26.8284L60.6583 24.219C60.8343 23.9843 60.9197 23.6941 60.8989 23.4014C60.878 23.1088 60.7524 22.8336 60.5449 22.6261L58.8204 20.9028L67.3322 12.3911C68.326 13.0529 69.4934 13.4061 70.6874 13.4063ZM49.9686 6.0938C49.9686 5.6117 50.1116 5.14044 50.3794 4.73959C50.6473 4.33875 51.0279 4.02633 51.4733 3.84184C51.9187 3.65735 52.4088 3.60908 52.8817 3.70313C53.3545 3.79718 53.7888 4.02933 54.1297 4.37022C54.4706 4.71111 54.7027 5.14543 54.7968 5.61826C54.8908 6.09109 54.8426 6.58119 54.6581 7.02659C54.4736 7.47198 54.1612 7.85267 53.7603 8.1205C53.3595 8.38834 52.8882 8.5313 52.4061 8.5313C51.7597 8.5313 51.1397 8.27449 50.6826 7.81737C50.2254 7.36025 49.9686 6.74026 49.9686 6.0938ZM23.1561 6.0938C23.1561 5.6117 23.2991 5.14044 23.5669 4.73959C23.8348 4.33875 24.2154 4.02633 24.6608 3.84184C25.1062 3.65735 25.5963 3.60908 26.0692 3.70313C26.542 3.79718 26.9763 4.02933 27.3172 4.37022C27.6581 4.71111 27.8902 5.14543 27.9843 5.61826C28.0783 6.09109 28.0301 6.58119 27.8456 7.02659C27.6611 7.47198 27.3487 7.85267 26.9478 8.1205C26.547 8.38834 26.0757 8.5313 25.5936 8.5313C24.9472 8.5313 24.3272 8.27449 23.8701 7.81737C23.4129 7.36025 23.1561 6.74026 23.1561 6.0938ZM7.31238 10.9688C6.58925 10.9688 5.88235 10.7544 5.28108 10.3526C4.67981 9.95085 4.21118 9.37982 3.93445 8.71173C3.65772 8.04364 3.58531 7.30849 3.72639 6.59925C3.86746 5.89 4.21569 5.23852 4.72702 4.72719C5.23836 4.21585 5.88984 3.86763 6.59908 3.72655C7.30833 3.58547 8.04348 3.65788 8.71157 3.93461C9.37966 4.21134 9.95069 4.67997 10.3524 5.28124C10.7542 5.88251 10.9686 6.58941 10.9686 7.31255C10.9686 8.28224 10.5834 9.21223 9.89774 9.89791C9.21206 10.5836 8.28208 10.9688 7.31238 10.9688ZM6.09363 28.0313C5.61154 28.0313 5.14028 27.8883 4.73943 27.6205C4.33859 27.3527 4.02617 26.972 3.84168 26.5266C3.65719 26.0812 3.60892 25.5911 3.70297 25.1183C3.79702 24.6454 4.02917 24.2111 4.37006 23.8702C4.71095 23.5293 5.14527 23.2972 5.6181 23.2031C6.09093 23.1091 6.58103 23.1574 7.02642 23.3418C7.47182 23.5263 7.8525 23.8387 8.12034 24.2396C8.38818 24.6404 8.53113 25.1117 8.53113 25.5938C8.53113 26.2403 8.27433 26.8603 7.81721 27.3174C7.36009 27.7745 6.7401 28.0313 6.09363 28.0313ZM6.09363 54.8438C5.61154 54.8438 5.14028 54.7008 4.73943 54.433C4.33859 54.1652 4.02617 53.7845 3.84168 53.3391C3.65719 52.8937 3.60892 52.4036 3.70297 51.9308C3.79702 51.4579 4.02917 51.0236 4.37006 50.6827C4.71095 50.3418 5.14527 50.1097 5.6181 50.0156C6.09093 49.9216 6.58103 49.9699 7.02642 50.1543C7.47182 50.3388 7.8525 50.6513 8.12034 51.0521C8.38818 51.4529 8.53113 51.9242 8.53113 52.4063C8.53113 53.0528 8.27433 53.6728 7.81721 54.1299C7.36009 54.587 6.7401 54.8438 6.09363 54.8438ZM7.31238 74.3438C6.58925 74.3438 5.88235 74.1294 5.28108 73.7276C4.67981 73.3259 4.21118 72.7548 3.93445 72.0867C3.65772 71.4186 3.58531 70.6835 3.72639 69.9743C3.86746 69.265 4.21569 68.6135 4.72702 68.1022C5.23836 67.5909 5.88984 67.2426 6.59908 67.1016C7.30833 66.9605 8.04348 67.0329 8.71157 67.3096C9.37966 67.5864 9.95069 68.055 10.3524 68.6562C10.7542 69.2575 10.9686 69.9644 10.9686 70.6876C10.9686 71.6572 10.5834 72.5872 9.89774 73.2729C9.21206 73.9586 8.28208 74.3438 7.31238 74.3438ZM28.0311 71.9063C28.0311 72.3884 27.8882 72.8597 27.6203 73.2605C27.3525 73.6613 26.9718 73.9738 26.5264 74.1583C26.081 74.3427 25.5909 74.391 25.1181 74.297C24.6453 74.2029 24.211 73.9708 23.8701 73.6299C23.5292 73.289 23.297 72.8547 23.203 72.3818C23.1089 71.909 23.1572 71.4189 23.3417 70.9735C23.5262 70.5281 23.8386 70.1474 24.2394 69.8796C24.6403 69.6118 25.1115 69.4688 25.5936 69.4688C26.2401 69.4688 26.8601 69.7256 27.3172 70.1827C27.7743 70.6398 28.0311 71.2598 28.0311 71.9063ZM54.8436 71.9063C54.8436 72.3884 54.7007 72.8597 54.4328 73.2605C54.165 73.6613 53.7843 73.9738 53.3389 74.1583C52.8935 74.3427 52.4034 74.391 51.9306 74.297C51.4578 74.2029 51.0234 73.9708 50.6826 73.6299C50.3417 73.289 50.1095 72.8547 50.0155 72.3818C49.9214 71.909 49.9697 71.4189 50.1542 70.9735C50.3387 70.5281 50.6511 70.1474 51.0519 69.8796C51.4528 69.6118 51.924 69.4688 52.4061 69.4688C53.0526 69.4688 53.6726 69.7256 54.1297 70.1827C54.5868 70.6398 54.8436 71.2598 54.8436 71.9063ZM70.6874 67.0313C71.4105 67.0313 72.1174 67.2457 72.7187 67.6475C73.32 68.0492 73.7886 68.6203 74.0653 69.2884C74.342 69.9565 74.4145 70.6916 74.2734 71.4008C74.1323 72.1101 73.7841 72.7616 73.2727 73.2729C72.7614 73.7842 72.1099 74.1325 71.4007 74.2735C70.6914 74.4146 69.9563 74.3422 69.2882 74.0655C68.6201 73.7888 68.0491 73.3201 67.6473 72.7189C67.2456 72.1176 67.0311 71.4107 67.0311 70.6876C67.0311 69.7179 67.4163 68.7879 68.102 68.1022C68.7877 67.4165 69.7177 67.0313 70.6874 67.0313ZM71.9061 49.9688C72.3882 49.9688 72.8595 50.1118 73.2603 50.3796C73.6612 50.6474 73.9736 51.0281 74.1581 51.4735C74.3426 51.9189 74.3908 52.409 74.2968 52.8818C74.2027 53.3547 73.9706 53.789 73.6297 54.1299C73.2888 54.4708 72.8545 54.7029 72.3817 54.797C71.9088 54.891 71.4187 54.8427 70.9733 54.6583C70.5279 54.4738 70.1473 54.1613 69.8794 53.7605C69.6116 53.3597 69.4686 52.8884 69.4686 52.4063C69.4686 51.7598 69.7254 51.1398 70.1826 50.6827C70.6397 50.2256 71.2597 49.9688 71.9061 49.9688ZM71.9061 23.1563C72.3882 23.1563 72.8595 23.2993 73.2603 23.5671C73.6612 23.8349 73.9736 24.2156 74.1581 24.661C74.3426 25.1064 74.3908 25.5965 74.2968 26.0693C74.2027 26.5422 73.9706 26.9765 73.6297 27.3174C73.2888 27.6583 72.8545 27.8904 72.3817 27.9845C71.9088 28.0785 71.4187 28.0302 70.9733 27.8458C70.5279 27.6613 70.1473 27.3488 69.8794 26.948C69.6116 26.5472 69.4686 26.0759 69.4686 25.5938C69.4686 24.9473 69.7254 24.3273 70.1826 23.8702C70.6397 23.4131 71.2597 23.1563 71.9061 23.1563ZM63.3749 36.4005V41.5996L60.3475 42.0323C60.0967 42.0682 59.8633 42.1814 59.6798 42.3562C59.4963 42.5309 59.3719 42.7585 59.3238 43.0073C58.7997 45.7039 57.7391 48.2677 56.205 50.5465C56.0638 50.7564 55.9915 51.0051 55.9981 51.258C56.0046 51.5109 56.0897 51.7554 56.2415 51.9578L58.0697 54.4014L54.3976 58.0735L51.9601 56.2454C51.7577 56.0936 51.5131 56.0085 51.2603 56.0019C51.0074 55.9954 50.7587 56.0677 50.5488 56.2088C48.2695 57.7428 45.7053 58.8033 43.0084 59.3276C42.7596 59.3757 42.532 59.5002 42.3572 59.6836C42.1825 59.8671 42.0693 60.1005 42.0334 60.3513L41.5995 63.375H36.4003L35.9676 60.3477C35.9317 60.0969 35.8185 59.8635 35.6437 59.68C35.469 59.4965 35.2414 59.372 34.9926 59.3239C32.2957 58.7997 29.7315 57.7391 27.4522 56.2051C27.2423 56.064 26.9936 55.9917 26.7407 55.9983C26.4879 56.0048 26.2433 56.0899 26.0409 56.2417L23.6034 58.0698L19.9264 54.3977L21.7546 51.9541C21.9064 51.7518 21.9915 51.5072 21.998 51.2543C22.0046 51.0014 21.9323 50.7528 21.7911 50.5428C20.257 48.2641 19.1964 45.7003 18.6724 43.0036C18.6242 42.7549 18.4998 42.5273 18.3163 42.3525C18.1328 42.1778 17.8994 42.0646 17.6486 42.0286L14.6249 41.5996V36.4005L17.6523 35.9678C17.9031 35.9319 18.1365 35.8187 18.32 35.6439C18.5034 35.4692 18.6279 35.2416 18.676 34.9928C19.2003 32.2959 20.2608 29.7317 21.7948 27.4524C21.9359 27.2424 22.0082 26.9938 22.0017 26.7409C21.9951 26.488 21.91 26.2434 21.7582 26.0411L19.9301 23.6036L23.6059 19.9278L26.0434 21.756C26.2457 21.9078 26.4903 21.9928 26.7432 21.9994C26.9961 22.0059 27.2447 21.9336 27.4547 21.7925C29.7335 20.2585 32.2973 19.1979 34.9939 18.6737C35.2426 18.6256 35.4702 18.5012 35.645 18.3177C35.8197 18.1342 35.9329 17.9008 35.9689 17.65L36.4003 14.625H41.5995L42.0321 17.6524C42.0681 17.9032 42.1813 18.1366 42.356 18.3201C42.5308 18.5036 42.7584 18.6281 43.0071 18.6762C45.7037 19.2003 48.2675 20.2609 50.5463 21.795C50.7563 21.9361 51.0049 22.0084 51.2578 22.0018C51.5107 21.9953 51.7553 21.9102 51.9576 21.7584L54.4012 19.9303L58.077 23.606L56.2489 26.0435C56.097 26.2459 56.012 26.4905 56.0054 26.7433C55.9989 26.9962 56.0712 27.2449 56.2123 27.4548C57.7462 29.7341 58.8068 32.2983 59.3311 34.9952C59.3792 35.244 59.5036 35.4716 59.6871 35.6463C59.8706 35.8211 60.104 35.9343 60.3548 35.9702L63.3749 36.4005ZM70.6874 3.6563C71.4105 3.6563 72.1174 3.87073 72.7187 4.27248C73.32 4.67424 73.7886 5.24527 74.0653 5.91336C74.342 6.58145 74.4145 7.3166 74.2734 8.02584C74.1323 8.73509 73.7841 9.38657 73.2727 9.89791C72.7614 10.4092 72.1099 10.7575 71.4007 10.8985C70.6914 11.0396 69.9563 10.9672 69.2882 10.6905C68.6201 10.4137 68.0491 9.94512 67.6473 9.34385C67.2456 8.74258 67.0311 8.03568 67.0311 7.31255C67.0311 6.34285 67.4163 5.41287 68.102 4.72719C68.7877 4.04151 69.7177 3.6563 70.6874 3.6563Z" fill="#C4C496"></path></svg>