<svg xmlns="http://www.w3.org/2000/svg" width="78" height="78" viewBox="0 0 78 78" fill="none"><path d="M18.2811 53.625V34.125H28.0311V36.5625C28.0311 36.8857 28.1595 37.1957 28.3881 37.4243C28.6166 37.6528 28.9266 37.7812 29.2499 37.7812C29.5731 37.7812 29.8831 37.6528 30.1117 37.4243C30.3402 37.1957 30.4686 36.8857 30.4686 36.5625V32.9062C30.4686 32.583 30.3402 32.273 30.1117 32.0445C29.8831 31.8159 29.5731 31.6875 29.2499 31.6875H17.0624C16.7391 31.6875 16.4291 31.8159 16.2006 32.0445C15.972 32.273 15.8436 32.583 15.8436 32.9062V53.625H12.1874V27.5088L32.9061 11.2972L53.6249 27.5088V36.5625C53.6249 36.8857 53.7533 37.1957 53.9818 37.4243C54.2104 37.6528 54.5204 37.7812 54.8436 37.7812C55.1668 37.7812 55.4768 37.6528 55.7054 37.4243C55.934 37.1957 56.0624 36.8857 56.0624 36.5625V29.4161L57.9804 30.9169C58.2347 31.1159 58.5576 31.2058 58.8782 31.1668C59.1988 31.1279 59.4908 30.9633 59.69 30.7092L63.1148 26.3459C63.2137 26.2199 63.2868 26.0757 63.3298 25.9214C63.3729 25.7671 63.3851 25.6059 63.3659 25.4469C63.3466 25.2878 63.2961 25.1342 63.2174 24.9947C63.1387 24.8552 63.0333 24.7326 62.9071 24.6339L56.0624 19.2771V3.65625C56.0624 3.33302 55.934 3.02302 55.7054 2.79446C55.4768 2.5659 55.1668 2.4375 54.8436 2.4375H45.0936C44.7704 2.4375 44.4604 2.5659 44.2318 2.79446C44.0033 3.02302 43.8749 3.33302 43.8749 3.65625V9.73892L35.8358 3.44737C34.9906 2.81348 33.9626 2.47082 32.9061 2.47082C31.8496 2.47082 30.8217 2.81348 29.9765 3.44737L2.90511 24.6339C2.77897 24.7326 2.67353 24.8552 2.59482 24.9947C2.5161 25.1342 2.46566 25.2878 2.44637 25.4469C2.42708 25.6059 2.43932 25.7671 2.4824 25.9214C2.52548 26.0757 2.59855 26.2199 2.69742 26.3459L6.12218 30.7092C6.32148 30.9633 6.61349 31.1279 6.93406 31.1668C7.25463 31.2057 7.57754 31.1158 7.83188 30.9169L9.74986 29.4161V53.625H7.31236C6.98913 53.625 6.67914 53.7534 6.45058 53.982C6.22202 54.2105 6.09361 54.5205 6.09361 54.8438V59.7188C6.09361 60.042 6.22202 60.352 6.45058 60.5805C6.67914 60.8091 6.98913 60.9375 7.31236 60.9375H16.1191C16.4424 60.9375 16.7524 60.8091 16.9809 60.5805C17.2095 60.352 17.3379 60.042 17.3379 59.7188C17.3379 59.3955 17.2095 59.0855 16.9809 58.857C16.7524 58.6284 16.4424 58.5 16.1191 58.5H8.53111V56.0625H18.2811C18.6043 56.0625 18.9143 55.9341 19.1429 55.7055C19.3715 55.477 19.4999 55.167 19.4999 54.8438C19.4999 54.5205 19.3715 54.2105 19.1429 53.982C18.9143 53.7534 18.6043 53.625 18.2811 53.625ZM46.3124 4.875H53.6249V17.3694L46.3124 11.6466V4.875ZM7.28799 28.2473L5.3682 25.8014L31.4785 5.36714C31.8904 5.05831 32.3913 4.89136 32.9061 4.89136C33.4209 4.89136 33.9219 5.05831 34.3337 5.36714L60.444 25.8014L58.5242 28.2473L33.6571 8.79011C33.4427 8.62238 33.1783 8.53125 32.9061 8.53125C32.6339 8.53125 32.3695 8.62238 32.1551 8.79011L7.28799 28.2473ZM28.0311 67.0312V74.3438C28.0311 74.667 27.9027 74.977 27.6742 75.2055C27.4456 75.4341 27.1356 75.5625 26.8124 75.5625C26.4891 75.5625 26.1791 75.4341 25.9506 75.2055C25.722 74.977 25.5936 74.667 25.5936 74.3438V67.0312C25.5936 66.708 25.722 66.398 25.9506 66.1695C26.1791 65.9409 26.4891 65.8125 26.8124 65.8125C27.1356 65.8125 27.4456 65.9409 27.6742 66.1695C27.9027 66.398 28.0311 66.708 28.0311 67.0312ZM67.0311 53.625H66.8966C68.1103 52.4402 68.9434 50.9206 69.2893 49.2602C69.6352 47.5997 69.4784 45.8739 68.8388 44.303C68.1992 42.7321 67.1059 41.3875 65.6985 40.441C64.2911 39.4944 62.6335 38.9889 60.9374 38.9889C59.2413 38.9889 57.5837 39.4944 56.1763 40.441C54.7689 41.3875 53.6756 42.7321 53.036 44.303C52.3964 45.8739 52.2395 47.5997 52.5854 49.2602C52.9314 50.9206 53.7644 52.4402 54.9781 53.625H54.8436C54.7047 53.625 54.564 53.6376 54.4243 53.6449C53.9251 52.2147 52.9934 50.9752 51.7583 50.0982C50.5232 49.2212 49.0459 48.75 47.5311 48.75C46.0163 48.75 44.539 49.2212 43.304 50.0982C42.0689 50.9752 41.1372 52.2147 40.6379 53.6449C40.4982 53.6376 40.3576 53.625 40.2186 53.625H40.0841C41.2978 52.4402 42.1308 50.9206 42.4768 49.2602C42.8227 47.5997 42.6659 45.8739 42.0263 44.303C41.3867 42.7321 40.2934 41.3875 38.886 40.441C37.4786 39.4944 35.821 38.9889 34.1249 38.9889C32.4288 38.9889 30.7712 39.4944 29.3638 40.441C27.9564 41.3875 26.8631 42.7321 26.2235 44.303C25.5839 45.8739 25.427 47.5997 25.7729 49.2602C26.1189 50.9206 26.9519 52.4402 28.1656 53.625H28.0311C25.7693 53.6275 23.6008 54.5272 22.0014 56.1266C20.402 57.7259 19.5024 59.8944 19.4999 62.1562V74.3438C19.4999 74.667 19.6283 74.977 19.8568 75.2055C20.0854 75.4341 20.3954 75.5625 20.7186 75.5625C21.0418 75.5625 21.3518 75.4341 21.5804 75.2055C21.809 74.977 21.9374 74.667 21.9374 74.3438V62.1562C21.9393 60.5407 22.5819 58.9918 23.7243 57.8494C24.8667 56.707 26.4155 56.0644 28.0311 56.0625H40.2186C40.2193 57.8765 40.8977 59.6248 42.1207 60.9646C40.2806 61.1006 38.5598 61.9269 37.3031 63.2779C36.0463 64.6289 35.3465 66.4049 35.3436 68.25V74.3438C35.3436 74.667 35.472 74.977 35.7006 75.2055C35.9291 75.4341 36.2391 75.5625 36.5624 75.5625C36.8856 75.5625 37.1956 75.4341 37.4242 75.2055C37.6527 74.977 37.7811 74.667 37.7811 74.3438V68.25C37.7826 66.9575 38.2967 65.7184 39.2106 64.8045C40.1245 63.8906 41.3636 63.3765 42.6561 63.375H52.4061C53.6986 63.3765 54.9377 63.8906 55.8516 64.8045C56.7655 65.7184 57.2796 66.9575 57.2811 68.25V74.3438C57.2811 74.667 57.4095 74.977 57.6381 75.2055C57.8666 75.4341 58.1766 75.5625 58.4999 75.5625C58.8231 75.5625 59.1331 75.4341 59.3617 75.2055C59.5902 74.977 59.7186 74.667 59.7186 74.3438V68.25C59.7158 66.4049 59.0159 64.6289 57.7592 63.2779C56.5024 61.9269 54.7817 61.1006 52.9416 60.9646C54.1646 59.6248 54.8429 57.8765 54.8436 56.0625H67.0311C68.6467 56.0644 70.1956 56.707 71.338 57.8494C72.4803 58.9918 73.123 60.5407 73.1249 62.1562V74.3438C73.1249 74.667 73.2533 74.977 73.4818 75.2055C73.7104 75.4341 74.0204 75.5625 74.3436 75.5625C74.6668 75.5625 74.9768 75.4341 75.2054 75.2055C75.434 74.977 75.5624 74.667 75.5624 74.3438V62.1562C75.5598 59.8944 74.6602 57.7259 73.0608 56.1266C71.4614 54.5272 69.293 53.6275 67.0311 53.625ZM34.1249 53.625C32.9196 53.625 31.7415 53.2676 30.7394 52.598C29.7372 51.9284 28.9562 50.9767 28.495 49.8632C28.0338 48.7497 27.9131 47.5245 28.1482 46.3424C28.3833 45.1603 28.9637 44.0745 29.8159 43.2223C30.6682 42.3701 31.754 41.7897 32.936 41.5546C34.1181 41.3195 35.3434 41.4401 36.4568 41.9014C37.5703 42.3626 38.522 43.1436 39.1916 44.1457C39.8612 45.1479 40.2186 46.326 40.2186 47.5312C40.2167 49.1468 39.5741 50.6957 38.4317 51.8381C37.2893 52.9805 35.7404 53.6231 34.1249 53.625ZM47.5311 60.9375C46.5669 60.9375 45.6244 60.6516 44.8227 60.1159C44.021 59.5802 43.3962 58.8189 43.0272 57.9281C42.6582 57.0373 42.5617 56.0571 42.7498 55.1114C42.9379 54.1658 43.4022 53.2971 44.084 52.6154C44.7658 51.9336 45.6344 51.4693 46.5801 51.2812C47.5257 51.0931 48.5059 51.1896 49.3967 51.5586C50.2875 51.9276 51.0489 52.5524 51.5845 53.3541C52.1202 54.1558 52.4061 55.0983 52.4061 56.0625C52.4046 57.355 51.8905 58.5941 50.9766 59.508C50.0627 60.4219 48.8236 60.936 47.5311 60.9375ZM60.9374 53.625C59.7321 53.625 58.554 53.2676 57.5519 52.598C56.5497 51.9284 55.7687 50.9767 55.3075 49.8632C54.8463 48.7497 54.7256 47.5245 54.9607 46.3424C55.1958 45.1603 55.7762 44.0745 56.6284 43.2223C57.4807 42.3701 58.5665 41.7897 59.7485 41.5546C60.9306 41.3195 62.1559 41.4401 63.2693 41.9014C64.3828 42.3626 65.3345 43.1436 66.0041 44.1457C66.6737 45.1479 67.0311 46.326 67.0311 47.5312C67.0292 49.1468 66.3866 50.6957 65.2442 51.8381C64.1018 52.9805 62.5529 53.6231 60.9374 53.625ZM69.4686 67.0312V74.3438C69.4686 74.667 69.3402 74.977 69.1117 75.2055C68.8831 75.4341 68.5731 75.5625 68.2499 75.5625C67.9266 75.5625 67.6166 75.4341 67.3881 75.2055C67.1595 74.977 67.0311 74.667 67.0311 74.3438V67.0312C67.0311 66.708 67.1595 66.398 67.3881 66.1695C67.6166 65.9409 67.9266 65.8125 68.2499 65.8125C68.5731 65.8125 68.8831 65.9409 69.1117 66.1695C69.3402 66.398 69.4686 66.708 69.4686 67.0312ZM54.8436 69.4688V74.3438C54.8436 74.667 54.7152 74.977 54.4867 75.2055C54.2581 75.4341 53.9481 75.5625 53.6249 75.5625C53.3016 75.5625 52.9916 75.4341 52.7631 75.2055C52.5345 74.977 52.4061 74.667 52.4061 74.3438V69.4688C52.4061 69.1455 52.5345 68.8355 52.7631 68.607C52.9916 68.3784 53.3016 68.25 53.6249 68.25C53.9481 68.25 54.2581 68.3784 54.4867 68.607C54.7152 68.8355 54.8436 69.1455 54.8436 69.4688ZM42.6561 69.4688V74.3438C42.6561 74.667 42.5277 74.977 42.2992 75.2055C42.0706 75.4341 41.7606 75.5625 41.4374 75.5625C41.1141 75.5625 40.8041 75.4341 40.5756 75.2055C40.347 74.977 40.2186 74.667 40.2186 74.3438V69.4688C40.2186 69.1455 40.347 68.8355 40.5756 68.607C40.8041 68.3784 41.1141 68.25 41.4374 68.25C41.7606 68.25 42.0706 68.3784 42.2992 68.607C42.5277 68.8355 42.6561 69.1455 42.6561 69.4688ZM47.5311 42.6562V34.125H36.5624V35.3438C36.5624 35.667 36.434 35.977 36.2054 36.2055C35.9768 36.4341 35.6668 36.5625 35.3436 36.5625C35.0204 36.5625 34.7104 36.4341 34.4818 36.2055C34.2533 35.977 34.1249 35.667 34.1249 35.3438V32.9062C34.1249 32.583 34.2533 32.273 34.4818 32.0445C34.7104 31.8159 35.0204 31.6875 35.3436 31.6875H48.7499C49.0731 31.6875 49.3831 31.8159 49.6117 32.0445C49.8402 32.273 49.9686 32.583 49.9686 32.9062V43.875C49.9686 44.1982 49.8402 44.5082 49.6117 44.7368C49.3831 44.9653 49.0731 45.0938 48.7499 45.0938H46.3124C45.9891 45.0938 45.6791 44.9653 45.4506 44.7368C45.222 44.5082 45.0936 44.1982 45.0936 43.875C45.0936 43.5518 45.222 43.2418 45.4506 43.0132C45.6791 42.7847 45.9891 42.6562 46.3124 42.6562H47.5311Z" fill="#C4C496"></path></svg>